<svg version="1.1" xmlns="http://www.w3.org/2000/svg" xmlns:xlink="http://www.w3.org/1999/xlink" width="619" height="491"><defs/><g><text fill="#eeeeee" stroke="none" font-family="Arial" font-size="24px" font-style="normal" font-weight="normal" text-decoration="none" x="0" y="0"></text><text fill="#eeeeee" stroke="none" font-family="Arial" font-size="24px" font-style="normal" font-weight="normal" text-decoration="none" x="0" y="30"></text><text fill="#eeeeee" stroke="none" font-family="Arial" font-size="24px" font-style="normal" font-weight="normal" text-decoration="none" x="0" y="60"></text><text fill="#eeeeee" stroke="none" font-family="Arial" font-size="24px" font-style="normal" font-weight="normal" text-decoration="none" x="0" y="90"></text><text fill="#eeeeee" stroke="none" font-family="Arial" font-size="24px" font-style="normal" font-weight="normal" text-decoration="none" x="0" y="120"></text><text fill="#eeeeee" stroke="none" font-family="Arial" font-size="24px" font-style="normal" font-weight="normal" text-decoration="none" x="0" y="150"></text><text fill="#eeeeee" stroke="none" font-family="Arial" font-size="24px" font-style="normal" font-weight="normal" text-decoration="none" x="0" y="180"></text><text fill="#eeeeee" stroke="none" font-family="Arial" font-size="24px" font-style="normal" font-weight="normal" text-decoration="none" x="0" y="210"></text><text fill="#eeeeee" stroke="none" font-family="Arial" font-size="24px" font-style="normal" font-weight="normal" text-decoration="none" x="0" y="240"></text><text fill="#eeeeee" stroke="none" font-family="Arial" font-size="24px" font-style="normal" font-weight="normal" text-decoration="none" x="0" y="270"></text><text fill="#eeeeee" stroke="none" font-family="Arial" font-size="24px" font-style="normal" font-weight="normal" text-decoration="none" x="0" y="300"></text><text fill="#eeeeee" stroke="none" font-family="Arial" font-size="24px" font-style="normal" font-weight="normal" text-decoration="none" x="0" y="330"></text><text fill="#eeeeee" stroke="none" font-family="Arial" font-size="24px" font-style="normal" font-weight="normal" text-decoration="none" x="0" y="360"></text><text fill="#eeeeee" stroke="none" font-family="Arial" font-size="24px" font-style="normal" font-weight="normal" text-decoration="none" x="0" y="390"></text><text fill="#eeeeee" stroke="none" font-family="Arial" font-size="24px" font-style="normal" font-weight="normal" text-decoration="none" x="0" y="420"></text><text fill="#eeeeee" stroke="none" font-family="Arial" font-size="24px" font-style="normal" font-weight="normal" text-decoration="none" x="0" y="450"></text><text fill="#eeeeee" stroke="none" font-family="Arial" font-size="24px" font-style="normal" font-weight="normal" text-decoration="none" x="0" y="480"></text><text fill="#eeeeee" stroke="none" font-family="Arial" font-size="24px" font-style="normal" font-weight="normal" text-decoration="none" x="200" y="0"></text><text fill="#eeeeee" stroke="none" font-family="Arial" font-size="24px" font-style="normal" font-weight="normal" text-decoration="none" x="200" y="30"></text><text fill="#eeeeee" stroke="none" font-family="Arial" font-size="24px" font-style="normal" font-weight="normal" text-decoration="none" x="200" y="60"></text><text fill="#eeeeee" stroke="none" font-family="Arial" font-size="24px" font-style="normal" font-weight="normal" text-decoration="none" x="200" y="90"></text><text fill="#eeeeee" stroke="none" font-family="Arial" font-size="24px" font-style="normal" font-weight="normal" text-decoration="none" x="200" y="120"></text><text fill="#eeeeee" stroke="none" font-family="Arial" font-size="24px" font-style="normal" font-weight="normal" text-decoration="none" x="200" y="150"></text><text fill="#eeeeee" stroke="none" font-family="Arial" font-size="24px" font-style="normal" font-weight="normal" text-decoration="none" x="200" y="180"></text><text fill="#eeeeee" stroke="none" font-family="Arial" font-size="24px" font-style="normal" font-weight="normal" text-decoration="none" x="200" y="210"></text><text fill="#eeeeee" stroke="none" font-family="Arial" font-size="24px" font-style="normal" font-weight="normal" text-decoration="none" x="200" y="240"></text><text fill="#eeeeee" stroke="none" font-family="Arial" font-size="24px" font-style="normal" font-weight="normal" text-decoration="none" x="200" y="270"></text><text fill="#eeeeee" stroke="none" font-family="Arial" font-size="24px" font-style="normal" font-weight="normal" text-decoration="none" x="200" y="300"></text><text fill="#eeeeee" stroke="none" font-family="Arial" font-size="24px" font-style="normal" font-weight="normal" text-decoration="none" x="200" y="330"></text><text fill="#eeeeee" stroke="none" font-family="Arial" font-size="24px" font-style="normal" font-weight="normal" text-decoration="none" x="200" y="360"></text><text fill="#eeeeee" stroke="none" font-family="Arial" font-size="24px" font-style="normal" font-weight="normal" text-decoration="none" x="200" y="390"></text><text fill="#eeeeee" stroke="none" font-family="Arial" font-size="24px" font-style="normal" font-weight="normal" text-decoration="none" x="200" y="420"></text><text fill="#eeeeee" stroke="none" font-family="Arial" font-size="24px" font-style="normal" font-weight="normal" text-decoration="none" x="200" y="450"></text><text fill="#eeeeee" stroke="none" font-family="Arial" font-size="24px" font-style="normal" font-weight="normal" text-decoration="none" x="200" y="480"></text><text fill="#eeeeee" stroke="none" font-family="Arial" font-size="24px" font-style="normal" font-weight="normal" text-decoration="none" x="400" y="0"></text><text fill="#eeeeee" stroke="none" font-family="Arial" font-size="24px" font-style="normal" font-weight="normal" text-decoration="none" x="400" y="30"></text><text fill="#eeeeee" stroke="none" font-family="Arial" font-size="24px" font-style="normal" font-weight="normal" text-decoration="none" x="400" y="60"></text><text fill="#eeeeee" stroke="none" font-family="Arial" font-size="24px" font-style="normal" font-weight="normal" text-decoration="none" x="400" y="90"></text><text fill="#eeeeee" stroke="none" font-family="Arial" font-size="24px" font-style="normal" font-weight="normal" text-decoration="none" x="400" y="120"></text><text fill="#eeeeee" stroke="none" font-family="Arial" font-size="24px" font-style="normal" font-weight="normal" text-decoration="none" x="400" y="150"></text><text fill="#eeeeee" stroke="none" font-family="Arial" font-size="24px" font-style="normal" font-weight="normal" text-decoration="none" x="400" y="180"></text><text fill="#eeeeee" stroke="none" font-family="Arial" font-size="24px" font-style="normal" font-weight="normal" text-decoration="none" x="400" y="210"></text><text fill="#eeeeee" stroke="none" font-family="Arial" font-size="24px" font-style="normal" font-weight="normal" text-decoration="none" x="400" y="240"></text><text fill="#eeeeee" stroke="none" font-family="Arial" font-size="24px" font-style="normal" font-weight="normal" text-decoration="none" x="400" y="270"></text><text fill="#eeeeee" stroke="none" font-family="Arial" font-size="24px" font-style="normal" font-weight="normal" text-decoration="none" x="400" y="300"></text><text fill="#eeeeee" stroke="none" font-family="Arial" font-size="24px" font-style="normal" font-weight="normal" text-decoration="none" x="400" y="330"></text><text fill="#eeeeee" stroke="none" font-family="Arial" font-size="24px" font-style="normal" font-weight="normal" text-decoration="none" x="400" y="360"></text><text fill="#eeeeee" stroke="none" font-family="Arial" font-size="24px" font-style="normal" font-weight="normal" text-decoration="none" x="400" y="390"></text><text fill="#eeeeee" stroke="none" font-family="Arial" font-size="24px" font-style="normal" font-weight="normal" text-decoration="none" x="400" y="420"></text><text fill="#eeeeee" stroke="none" font-family="Arial" font-size="24px" font-style="normal" font-weight="normal" text-decoration="none" x="400" y="450"></text><text fill="#eeeeee" stroke="none" font-family="Arial" font-size="24px" font-style="normal" font-weight="normal" text-decoration="none" x="400" y="480"></text><text fill="#eeeeee" stroke="none" font-family="Arial" font-size="24px" font-style="normal" font-weight="normal" text-decoration="none" x="600" y="0"></text><text fill="#eeeeee" stroke="none" font-family="Arial" font-size="24px" font-style="normal" font-weight="normal" text-decoration="none" x="600" y="30"></text><text fill="#eeeeee" stroke="none" font-family="Arial" font-size="24px" font-style="normal" font-weight="normal" text-decoration="none" x="600" y="60"></text><text fill="#eeeeee" stroke="none" font-family="Arial" font-size="24px" font-style="normal" font-weight="normal" text-decoration="none" x="600" y="90"></text><text fill="#eeeeee" stroke="none" font-family="Arial" font-size="24px" font-style="normal" font-weight="normal" text-decoration="none" x="600" y="120"></text><text fill="#eeeeee" stroke="none" font-family="Arial" font-size="24px" font-style="normal" font-weight="normal" text-decoration="none" x="600" y="150"></text><text fill="#eeeeee" stroke="none" font-family="Arial" font-size="24px" font-style="normal" font-weight="normal" text-decoration="none" x="600" y="180"></text><text fill="#eeeeee" stroke="none" font-family="Arial" font-size="24px" font-style="normal" font-weight="normal" text-decoration="none" x="600" y="210"></text><text fill="#eeeeee" stroke="none" font-family="Arial" font-size="24px" font-style="normal" font-weight="normal" text-decoration="none" x="600" y="240"></text><text fill="#eeeeee" stroke="none" font-family="Arial" font-size="24px" font-style="normal" font-weight="normal" text-decoration="none" x="600" y="270"></text><text fill="#eeeeee" stroke="none" font-family="Arial" font-size="24px" font-style="normal" font-weight="normal" text-decoration="none" x="600" y="300"></text><text fill="#eeeeee" stroke="none" font-family="Arial" font-size="24px" font-style="normal" font-weight="normal" text-decoration="none" x="600" y="330"></text><text fill="#eeeeee" stroke="none" font-family="Arial" font-size="24px" font-style="normal" font-weight="normal" text-decoration="none" x="600" y="360"></text><text fill="#eeeeee" stroke="none" font-family="Arial" font-size="24px" font-style="normal" font-weight="normal" text-decoration="none" x="600" y="390"></text><text fill="#eeeeee" stroke="none" font-family="Arial" font-size="24px" font-style="normal" font-weight="normal" text-decoration="none" x="600" y="420"></text><text fill="#eeeeee" stroke="none" font-family="Arial" font-size="24px" font-style="normal" font-weight="normal" text-decoration="none" x="600" y="450"></text><text fill="#eeeeee" stroke="none" font-family="Arial" font-size="24px" font-style="normal" font-weight="normal" text-decoration="none" x="600" y="480"></text><g transform="translate(10,10) scale(1,1)"><rect fill="#C0C0C0" stroke="none" x="71" y="7" width="535" height="471" opacity="0.2"/></g><g transform="translate(10,10) scale(1,1)"><rect fill="#ffffff" stroke="none" x="64" y="0" width="535" height="471"/></g><g transform="translate(10,10) scale(1,1)"><path fill="none" stroke="#000000" d="M 64 0 L 599 0 L 599 471 L 64 471 L 64 0 Z Z" stroke-miterlimit="10"/></g><g transform="translate(10,10) scale(1,1)"><g><path fill="none" stroke="none"/><text fill="#000000" stroke="none" font-family="Arial" font-size="13px" font-style="normal" font-weight="bold" text-decoration="none" x="256.33740234375" y="19.5">Serveur Base de données</text></g></g><g transform="translate(10,10) scale(1,1)"><path fill="#ffffff" stroke="none" d="M 29.41252414772727 145.68 C 29.41252414772727 140.886167936 33.298366472672726 137 38.091796875 137 C 42.885227277327274 137 46.77106960227273 140.886167936 46.77106960227273 145.68 C 46.77106960227273 150.47383206400002 42.885227277327274 154.36 38.091796875 154.36 C 33.298366472672726 154.36 29.41252414772727 150.47383206400002 29.41252414772727 145.68 Z"/></g><g transform="translate(10,10) scale(1,1)"><path fill="none" stroke="#000000" d="M 29.41252414772727 145.68 C 29.41252414772727 140.886167936 33.298366472672726 137 38.091796875 137 C 42.885227277327274 137 46.77106960227273 140.886167936 46.77106960227273 145.68 C 46.77106960227273 150.47383206400002 42.885227277327274 154.36 38.091796875 154.36 C 33.298366472672726 154.36 29.41252414772727 150.47383206400002 29.41252414772727 145.68 Z" stroke-miterlimit="10"/></g><g transform="translate(10,10) scale(1,1)"><path fill="none" stroke="#000000" d="M 38.091796875 154.36 L 38.091796875 171.64" stroke-miterlimit="10"/></g><g transform="translate(10,10) scale(1,1)"><path fill="none" stroke="#000000" d="M 28.901978693181817 160.84 L 47.28161505681818 160.84" stroke-miterlimit="10"/></g><g transform="translate(10,10) scale(1,1)"><path fill="none" stroke="#000000" d="M 38.091796875 171.64 L 25.328160511363635 189" stroke-miterlimit="10"/></g><g transform="translate(10,10) scale(1,1)"><path fill="none" stroke="#000000" d="M 38.091796875 171.64 L 50.855433238636365 189" stroke-miterlimit="10"/></g><g transform="translate(10,10) scale(1,1)"><g><path fill="none" stroke="none"/><text fill="#000000" stroke="none" font-family="Arial" font-size="13px" font-style="normal" font-weight="bold" text-decoration="none" x="7.029541015625" y="209.5">Formulaire</text></g></g><g transform="translate(10,10) scale(1,1)"><path fill="#ffffff" stroke="none" d="M 32.40935031960227 377.68 C 32.40935031960227 372.886167936 36.295192644547726 369 41.088623046875 369 C 45.882053449202274 369 49.76789577414773 372.886167936 49.76789577414773 377.68 C 49.76789577414773 382.473832064 45.882053449202274 386.36 41.088623046875 386.36 C 36.295192644547726 386.36 32.40935031960227 382.473832064 32.40935031960227 377.68 Z"/></g><g transform="translate(10,10) scale(1,1)"><path fill="none" stroke="#000000" d="M 32.40935031960227 377.68 C 32.40935031960227 372.886167936 36.295192644547726 369 41.088623046875 369 C 45.882053449202274 369 49.76789577414773 372.886167936 49.76789577414773 377.68 C 49.76789577414773 382.473832064 45.882053449202274 386.36 41.088623046875 386.36 C 36.295192644547726 386.36 32.40935031960227 382.473832064 32.40935031960227 377.68 Z" stroke-miterlimit="10"/></g><g transform="translate(10,10) scale(1,1)"><path fill="none" stroke="#000000" d="M 41.088623046875 386.36 L 41.088623046875 403.64" stroke-miterlimit="10"/></g><g transform="translate(10,10) scale(1,1)"><path fill="none" stroke="#000000" d="M 31.898804865056817 392.84 L 50.27844122869318 392.84" stroke-miterlimit="10"/></g><g transform="translate(10,10) scale(1,1)"><path fill="none" stroke="#000000" d="M 41.088623046875 403.64 L 28.324986683238635 421" stroke-miterlimit="10"/></g><g transform="translate(10,10) scale(1,1)"><path fill="none" stroke="#000000" d="M 41.088623046875 403.64 L 53.852259410511365 421" stroke-miterlimit="10"/></g><g transform="translate(10,10) scale(1,1)"><g><path fill="none" stroke="none"/><text fill="#000000" stroke="none" font-family="Arial" font-size="13px" font-style="normal" font-weight="bold" text-decoration="none" x="29.88818359375" y="441.5">Site</text></g></g><g transform="translate(10,10) scale(1,1)"><path fill="#C0C0C0" stroke="none" d="M 343 104 C 343 94.6111584 390.2339536 87 448.5 87 C 506.7660464 87 554 94.6111584 554 104 C 554 113.3888416 506.7660464 121 448.5 121 C 390.2339536 121 343 113.3888416 343 104 Z" opacity="0.2"/></g><g transform="translate(10,10) scale(1,1)"><path fill="#ffffff" stroke="none" d="M 336 97 C 336 87.6111584 383.2339536 80 441.5 80 C 499.7660464 80 547 87.6111584 547 97 C 547 106.3888416 499.7660464 114 441.5 114 C 383.2339536 114 336 106.3888416 336 97 Z"/></g><g transform="translate(10,10) scale(1,1)"><path fill="none" stroke="#000000" d="M 336 97 C 336 87.6111584 383.2339536 80 441.5 80 C 499.7660464 80 547 87.6111584 547 97 C 547 106.3888416 499.7660464 114 441.5 114 C 383.2339536 114 336 106.3888416 336 97 Z" stroke-miterlimit="10"/></g><g transform="translate(10,10) scale(1,1)"><g><path fill="none" stroke="none"/><text fill="#000000" stroke="none" font-family="Arial" font-size="13px" font-style="normal" font-weight="bold" text-decoration="none" x="379.00732421875" y="104">Enregistrer formulaire</text></g></g><g transform="translate(10,10) scale(1,1)"><path fill="#C0C0C0" stroke="none" d="M 327 192 C 327 182.6111584 373.11466559999997 175 430 175 C 486.88533440000003 175 533 182.6111584 533 192 C 533 201.3888416 486.88533440000003 209 430 209 C 373.11466559999997 209 327 201.3888416 327 192 Z" opacity="0.2"/></g><g transform="translate(10,10) scale(1,1)"><path fill="#ffffff" stroke="none" d="M 320 185 C 320 175.6111584 366.11466559999997 168 423 168 C 479.88533440000003 168 526 175.6111584 526 185 C 526 194.3888416 479.88533440000003 202 423 202 C 366.11466559999997 202 320 194.3888416 320 185 Z"/></g><g transform="translate(10,10) scale(1,1)"><path fill="none" stroke="#000000" d="M 320 185 C 320 175.6111584 366.11466559999997 168 423 168 C 479.88533440000003 168 526 175.6111584 526 185 C 526 194.3888416 479.88533440000003 202 423 202 C 366.11466559999997 202 320 194.3888416 320 185 Z" stroke-miterlimit="10"/></g><g transform="translate(10,10) scale(1,1)"><g><path fill="none" stroke="none"/><text fill="#000000" stroke="none" font-family="Arial" font-size="13px" font-style="normal" font-weight="bold" text-decoration="none" x="361.580078125" y="192">Enregistrer questions</text></g></g><g transform="translate(10,10) scale(1,1)"><path fill="none" stroke="#000000" d="M 77 167 L 348 115" stroke-miterlimit="10"/></g><g transform="translate(10,10) scale(1,1)"><path fill="#C0C0C0" stroke="none" d="M 103 264 C 103 254.6111584 169.037992 247 250.5 247 C 331.96200799999997 247 398 254.6111584 398 264 C 398 273.3888416 331.96200799999997 281 250.5 281 C 169.037992 281 103 273.3888416 103 264 Z" opacity="0.2"/></g><g transform="translate(10,10) scale(1,1)"><path fill="#ffffff" stroke="none" d="M 96 257 C 96 247.6111584 162.037992 240 243.5 240 C 324.96200799999997 240 391 247.6111584 391 257 C 391 266.3888416 324.96200799999997 274 243.5 274 C 162.037992 274 96 266.3888416 96 257 Z"/></g><g transform="translate(10,10) scale(1,1)"><path fill="none" stroke="#000000" d="M 96 257 C 96 247.6111584 162.037992 240 243.5 240 C 324.96200799999997 240 391 247.6111584 391 257 C 391 266.3888416 324.96200799999997 274 243.5 274 C 162.037992 274 96 266.3888416 96 257 Z" stroke-miterlimit="10"/></g><g transform="translate(10,10) scale(1,1)"><g><path fill="none" stroke="none"/><text fill="#000000" stroke="none" font-family="Arial" font-size="13px" font-style="normal" font-weight="bold" text-decoration="none" x="154.261474609375" y="264">Enregistrer réponses possibles</text></g></g><g transform="translate(10,10) scale(1,1)"><path fill="#C0C0C0" stroke="none" d="M 87 64 C 87 54.6111584 149.2324128 47 226 47 C 302.7675872 47 365 54.6111584 365 64 C 365 73.3888416 302.7675872 81 226 81 C 149.2324128 81 87 73.3888416 87 64 Z" opacity="0.2"/></g><g transform="translate(10,10) scale(1,1)"><path fill="#ffffff" stroke="none" d="M 80 57 C 80 47.6111584 142.2324128 40 219 40 C 295.7675872 40 358 47.6111584 358 57 C 358 66.3888416 295.7675872 74 219 74 C 142.2324128 74 80 66.3888416 80 57 Z"/></g><g transform="translate(10,10) scale(1,1)"><path fill="none" stroke="#000000" d="M 80 57 C 80 47.6111584 142.2324128 40 219 40 C 295.7675872 40 358 47.6111584 358 57 C 358 66.3888416 295.7675872 74 219 74 C 142.2324128 74 80 66.3888416 80 57 Z" stroke-miterlimit="10"/></g><g transform="translate(10,10) scale(1,1)"><g><path fill="none" stroke="none"/><text fill="#000000" stroke="none" font-family="Arial" font-size="13px" font-style="normal" font-weight="bold" text-decoration="none" x="131.919677734375" y="64">Enregistrer réponses données</text></g></g><g transform="translate(10,10) scale(1,1)"><path fill="none" stroke="#000000" d="M 77 149 L 191 75" stroke-miterlimit="10"/></g><g transform="translate(10,10) scale(1,1)"><path fill="#C0C0C0" stroke="none" d="M 87 360 C 87 350.6111584 132.6669504 343 189 343 C 245.3330496 343 291 350.6111584 291 360 C 291 369.3888416 245.3330496 377 189 377 C 132.6669504 377 87 369.3888416 87 360 Z" opacity="0.2"/></g><g transform="translate(10,10) scale(1,1)"><path fill="#ffffff" stroke="none" d="M 80 353 C 80 343.6111584 125.66695039999999 336 182 336 C 238.3330496 336 284 343.6111584 284 353 C 284 362.3888416 238.3330496 370 182 370 C 125.66695039999999 370 80 362.3888416 80 353 Z"/></g><g transform="translate(10,10) scale(1,1)"><path fill="none" stroke="#000000" d="M 80 353 C 80 343.6111584 125.66695039999999 336 182 336 C 238.3330496 336 284 343.6111584 284 353 C 284 362.3888416 238.3330496 370 182 370 C 125.66695039999999 370 80 362.3888416 80 353 Z" stroke-miterlimit="10"/></g><g transform="translate(10,10) scale(1,1)"><g><path fill="none" stroke="none"/><text fill="#000000" stroke="none" font-family="Arial" font-size="13px" font-style="normal" font-weight="bold" text-decoration="none" x="120.58642578125" y="360">Enregistrer utilisateur</text></g></g><g transform="translate(10,10) scale(1,1)"><path fill="#C0C0C0" stroke="none" d="M 367 336 C 367 326.6111584 406.6227952 319 455.5 319 C 504.3772048 319 544 326.6111584 544 336 C 544 345.3888416 504.3772048 353 455.5 353 C 406.6227952 353 367 345.3888416 367 336 Z" opacity="0.2"/></g><g transform="translate(10,10) scale(1,1)"><path fill="#ffffff" stroke="none" d="M 360 329 C 360 319.6111584 399.6227952 312 448.5 312 C 497.3772048 312 537 319.6111584 537 329 C 537 338.3888416 497.3772048 346 448.5 346 C 399.6227952 346 360 338.3888416 360 329 Z"/></g><g transform="translate(10,10) scale(1,1)"><path fill="none" stroke="#000000" d="M 360 329 C 360 319.6111584 399.6227952 312 448.5 312 C 497.3772048 312 537 319.6111584 537 329 C 537 338.3888416 497.3772048 346 448.5 346 C 399.6227952 346 360 338.3888416 360 329 Z" stroke-miterlimit="10"/></g><g transform="translate(10,10) scale(1,1)"><g><path fill="none" stroke="none"/><text fill="#000000" stroke="none" font-family="Arial" font-size="13px" font-style="normal" font-weight="bold" text-decoration="none" x="395.75732421875" y="336">Modifier utilisateur</text></g></g><g transform="translate(10,10) scale(1,1)"><path fill="#C0C0C0" stroke="none" d="M 359 424 C 359 414.6111584 403.3238048 407 458 407 C 512.6761952 407 557 414.6111584 557 424 C 557 433.3888416 512.6761952 441 458 441 C 403.3238048 441 359 433.3888416 359 424 Z" opacity="0.2"/></g><g transform="translate(10,10) scale(1,1)"><path fill="#ffffff" stroke="none" d="M 352 417 C 352 407.6111584 396.3238048 400 451 400 C 505.6761952 400 550 407.6111584 550 417 C 550 426.3888416 505.6761952 434 451 434 C 396.3238048 434 352 426.3888416 352 417 Z"/></g><g transform="translate(10,10) scale(1,1)"><path fill="none" stroke="#000000" d="M 352 417 C 352 407.6111584 396.3238048 400 451 400 C 505.6761952 400 550 407.6111584 550 417 C 550 426.3888416 505.6761952 434 451 434 C 396.3238048 434 352 426.3888416 352 417 Z" stroke-miterlimit="10"/></g><g transform="translate(10,10) scale(1,1)"><g><path fill="none" stroke="none"/><text fill="#000000" stroke="none" font-family="Arial" font-size="13px" font-style="normal" font-weight="bold" text-decoration="none" x="391.392333984375" y="424">Supprimer utilisateur</text></g></g><g transform="translate(10,10) scale(1,1)"><path fill="#C0C0C0" stroke="none" d="M 103 448 C 103 438.6111584 137.697928 431 180.5 431 C 223.302072 431 258 438.6111584 258 448 C 258 457.3888416 223.302072 465 180.5 465 C 137.697928 465 103 457.3888416 103 448 Z" opacity="0.2"/></g><g transform="translate(10,10) scale(1,1)"><path fill="#ffffff" stroke="none" d="M 96 441 C 96 431.6111584 130.697928 424 173.5 424 C 216.302072 424 251 431.6111584 251 441 C 251 450.3888416 216.302072 458 173.5 458 C 130.697928 458 96 450.3888416 96 441 Z"/></g><g transform="translate(10,10) scale(1,1)"><path fill="none" stroke="#000000" d="M 96 441 C 96 431.6111584 130.697928 424 173.5 424 C 216.302072 424 251 431.6111584 251 441 C 251 450.3888416 216.302072 458 173.5 458 C 130.697928 458 96 450.3888416 96 441 Z" stroke-miterlimit="10"/></g><g transform="translate(10,10) scale(1,1)"><g><path fill="none" stroke="none"/><text fill="#000000" stroke="none" font-family="Arial" font-size="13px" font-style="normal" font-weight="bold" text-decoration="none" x="127.260498046875" y="448">Gérer utilisateur</text></g></g><g transform="translate(10,10) scale(1,1)"><path fill="none" stroke="#000000" d="M 404 347 L 217 423" stroke-miterlimit="10"/></g><g transform="translate(10,10) scale(1,1)"><path fill="#FFFFFF" stroke="none" d="M 232.6598092944542 407.54780362338977 L 217 423 L 238.99951018632396 423.14680450206936"/></g><g transform="translate(10,10) scale(1,1)"><path fill="none" stroke="#000000" d="M 232.6598092944542 407.54780362338977 L 217 423 L 238.99951018632396 423.14680450206936 L 232.6598092944542 407.54780362338977" stroke-miterlimit="10"/></g><g transform="translate(10,10) scale(1,1)"><path fill="none" stroke="#000000" d="M 351 426 L 252 434" stroke-miterlimit="10"/></g><g transform="translate(10,10) scale(1,1)"><path fill="#FFFFFF" stroke="none" d="M 271.5811955680453 423.9712024586213 L 252 434 L 272.9374269185607 440.7545654212489"/></g><g transform="translate(10,10) scale(1,1)"><path fill="none" stroke="#000000" d="M 271.5811955680453 423.9712024586213 L 252 434 L 272.9374269185607 440.7545654212489 L 271.5811955680453 423.9712024586213" stroke-miterlimit="10"/></g><g transform="translate(10,10) scale(1,1)"><path fill="none" stroke="#000000" d="M 67 397 L 135 371" stroke-miterlimit="10"/></g><g transform="translate(10,10) scale(1,1)"><path fill="none" stroke="#000000" d="M 67 414 L 103 423" stroke-miterlimit="10"/></g><g transform="translate(10,10) scale(1,1)"><path fill="none" stroke="#000000" d="M 437 115 L 427 167" stroke-miterlimit="10" stroke-dasharray="3"/></g><g transform="translate(10,10) scale(1,1)"><path fill="none" stroke="#000000" d="M 424.78542108428877 156.22523131449742 L 427 167 L 433.05296823446315 157.81514422799248" stroke-miterlimit="10"/></g><g transform="translate(10,10) scale(1,1)"><g><path fill="none" stroke="none"/><text fill="#000000" stroke="none" font-family="Arial" font-size="13px" font-style="normal" font-weight="normal" text-decoration="none" x="433.5" y="152.5">«include»</text></g></g><g transform="translate(10,10) scale(1,1)"><path fill="none" stroke="#000000" d="M 378 203 L 288 239" stroke-miterlimit="10" stroke-dasharray="3"/></g><g transform="translate(10,10) scale(1,1)"><path fill="none" stroke="#000000" d="M 295.8724310758183 231.31723819473166 L 288 239 L 298.99918236888107 239.1341164273886" stroke-miterlimit="10"/></g><g transform="translate(10,10) scale(1,1)"><g><path fill="none" stroke="none"/><text fill="#000000" stroke="none" font-family="Arial" font-size="13px" font-style="normal" font-weight="normal" text-decoration="none" x="327.5" y="235.5">«include»</text></g></g></g></svg>