<svg version="1.1" xmlns="http://www.w3.org/2000/svg" xmlns:xlink="http://www.w3.org/1999/xlink" width="635.80810546875" height="476"><defs/><g><text fill="#eeeeee" stroke="none" font-family="Arial" font-size="24px" font-style="normal" font-weight="normal" text-decoration="none" x="0" y="0"></text><text fill="#eeeeee" stroke="none" font-family="Arial" font-size="24px" font-style="normal" font-weight="normal" text-decoration="none" x="0" y="30"></text><text fill="#eeeeee" stroke="none" font-family="Arial" font-size="24px" font-style="normal" font-weight="normal" text-decoration="none" x="0" y="60"></text><text fill="#eeeeee" stroke="none" font-family="Arial" font-size="24px" font-style="normal" font-weight="normal" text-decoration="none" x="0" y="90"></text><text fill="#eeeeee" stroke="none" font-family="Arial" font-size="24px" font-style="normal" font-weight="normal" text-decoration="none" x="0" y="120"></text><text fill="#eeeeee" stroke="none" font-family="Arial" font-size="24px" font-style="normal" font-weight="normal" text-decoration="none" x="0" y="150"></text><text fill="#eeeeee" stroke="none" font-family="Arial" font-size="24px" font-style="normal" font-weight="normal" text-decoration="none" x="0" y="180"></text><text fill="#eeeeee" stroke="none" font-family="Arial" font-size="24px" font-style="normal" font-weight="normal" text-decoration="none" x="0" y="210"></text><text fill="#eeeeee" stroke="none" font-family="Arial" font-size="24px" font-style="normal" font-weight="normal" text-decoration="none" x="0" y="240"></text><text fill="#eeeeee" stroke="none" font-family="Arial" font-size="24px" font-style="normal" font-weight="normal" text-decoration="none" x="0" y="270"></text><text fill="#eeeeee" stroke="none" font-family="Arial" font-size="24px" font-style="normal" font-weight="normal" text-decoration="none" x="0" y="300"></text><text fill="#eeeeee" stroke="none" font-family="Arial" font-size="24px" font-style="normal" font-weight="normal" text-decoration="none" x="0" y="330"></text><text fill="#eeeeee" stroke="none" font-family="Arial" font-size="24px" font-style="normal" font-weight="normal" text-decoration="none" x="0" y="360"></text><text fill="#eeeeee" stroke="none" font-family="Arial" font-size="24px" font-style="normal" font-weight="normal" text-decoration="none" x="0" y="390"></text><text fill="#eeeeee" stroke="none" font-family="Arial" font-size="24px" font-style="normal" font-weight="normal" text-decoration="none" x="0" y="420"></text><text fill="#eeeeee" stroke="none" font-family="Arial" font-size="24px" font-style="normal" font-weight="normal" text-decoration="none" x="0" y="450"></text><text fill="#eeeeee" stroke="none" font-family="Arial" font-size="24px" font-style="normal" font-weight="normal" text-decoration="none" x="200" y="0"></text><text fill="#eeeeee" stroke="none" font-family="Arial" font-size="24px" font-style="normal" font-weight="normal" text-decoration="none" x="200" y="30"></text><text fill="#eeeeee" stroke="none" font-family="Arial" font-size="24px" font-style="normal" font-weight="normal" text-decoration="none" x="200" y="60"></text><text fill="#eeeeee" stroke="none" font-family="Arial" font-size="24px" font-style="normal" font-weight="normal" text-decoration="none" x="200" y="90"></text><text fill="#eeeeee" stroke="none" font-family="Arial" font-size="24px" font-style="normal" font-weight="normal" text-decoration="none" x="200" y="120"></text><text fill="#eeeeee" stroke="none" font-family="Arial" font-size="24px" font-style="normal" font-weight="normal" text-decoration="none" x="200" y="150"></text><text fill="#eeeeee" stroke="none" font-family="Arial" font-size="24px" font-style="normal" font-weight="normal" text-decoration="none" x="200" y="180"></text><text fill="#eeeeee" stroke="none" font-family="Arial" font-size="24px" font-style="normal" font-weight="normal" text-decoration="none" x="200" y="210"></text><text fill="#eeeeee" stroke="none" font-family="Arial" font-size="24px" font-style="normal" font-weight="normal" text-decoration="none" x="200" y="240"></text><text fill="#eeeeee" stroke="none" font-family="Arial" font-size="24px" font-style="normal" font-weight="normal" text-decoration="none" x="200" y="270"></text><text fill="#eeeeee" stroke="none" font-family="Arial" font-size="24px" font-style="normal" font-weight="normal" text-decoration="none" x="200" y="300"></text><text fill="#eeeeee" stroke="none" font-family="Arial" font-size="24px" font-style="normal" font-weight="normal" text-decoration="none" x="200" y="330"></text><text fill="#eeeeee" stroke="none" font-family="Arial" font-size="24px" font-style="normal" font-weight="normal" text-decoration="none" x="200" y="360"></text><text fill="#eeeeee" stroke="none" font-family="Arial" font-size="24px" font-style="normal" font-weight="normal" text-decoration="none" x="200" y="390"></text><text fill="#eeeeee" stroke="none" font-family="Arial" font-size="24px" font-style="normal" font-weight="normal" text-decoration="none" x="200" y="420"></text><text fill="#eeeeee" stroke="none" font-family="Arial" font-size="24px" font-style="normal" font-weight="normal" text-decoration="none" x="200" y="450"></text><text fill="#eeeeee" stroke="none" font-family="Arial" font-size="24px" font-style="normal" font-weight="normal" text-decoration="none" x="400" y="0"></text><text fill="#eeeeee" stroke="none" font-family="Arial" font-size="24px" font-style="normal" font-weight="normal" text-decoration="none" x="400" y="30"></text><text fill="#eeeeee" stroke="none" font-family="Arial" font-size="24px" font-style="normal" font-weight="normal" text-decoration="none" x="400" y="60"></text><text fill="#eeeeee" stroke="none" font-family="Arial" font-size="24px" font-style="normal" font-weight="normal" text-decoration="none" x="400" y="90"></text><text fill="#eeeeee" stroke="none" font-family="Arial" font-size="24px" font-style="normal" font-weight="normal" text-decoration="none" x="400" y="120"></text><text fill="#eeeeee" stroke="none" font-family="Arial" font-size="24px" font-style="normal" font-weight="normal" text-decoration="none" x="400" y="150"></text><text fill="#eeeeee" stroke="none" font-family="Arial" font-size="24px" font-style="normal" font-weight="normal" text-decoration="none" x="400" y="180"></text><text fill="#eeeeee" stroke="none" font-family="Arial" font-size="24px" font-style="normal" font-weight="normal" text-decoration="none" x="400" y="210"></text><text fill="#eeeeee" stroke="none" font-family="Arial" font-size="24px" font-style="normal" font-weight="normal" text-decoration="none" x="400" y="240"></text><text fill="#eeeeee" stroke="none" font-family="Arial" font-size="24px" font-style="normal" font-weight="normal" text-decoration="none" x="400" y="270"></text><text fill="#eeeeee" stroke="none" font-family="Arial" font-size="24px" font-style="normal" font-weight="normal" text-decoration="none" x="400" y="300"></text><text fill="#eeeeee" stroke="none" font-family="Arial" font-size="24px" font-style="normal" font-weight="normal" text-decoration="none" x="400" y="330"></text><text fill="#eeeeee" stroke="none" font-family="Arial" font-size="24px" font-style="normal" font-weight="normal" text-decoration="none" x="400" y="360"></text><text fill="#eeeeee" stroke="none" font-family="Arial" font-size="24px" font-style="normal" font-weight="normal" text-decoration="none" x="400" y="390"></text><text fill="#eeeeee" stroke="none" font-family="Arial" font-size="24px" font-style="normal" font-weight="normal" text-decoration="none" x="400" y="420"></text><text fill="#eeeeee" stroke="none" font-family="Arial" font-size="24px" font-style="normal" font-weight="normal" text-decoration="none" x="400" y="450"></text><text fill="#eeeeee" stroke="none" font-family="Arial" font-size="24px" font-style="normal" font-weight="normal" text-decoration="none" x="600" y="0"></text><text fill="#eeeeee" stroke="none" font-family="Arial" font-size="24px" font-style="normal" font-weight="normal" text-decoration="none" x="600" y="30"></text><text fill="#eeeeee" stroke="none" font-family="Arial" font-size="24px" font-style="normal" font-weight="normal" text-decoration="none" x="600" y="60"></text><text fill="#eeeeee" stroke="none" font-family="Arial" font-size="24px" font-style="normal" font-weight="normal" text-decoration="none" x="600" y="90"></text><text fill="#eeeeee" stroke="none" font-family="Arial" font-size="24px" font-style="normal" font-weight="normal" text-decoration="none" x="600" y="120"></text><text fill="#eeeeee" stroke="none" font-family="Arial" font-size="24px" font-style="normal" font-weight="normal" text-decoration="none" x="600" y="150"></text><text fill="#eeeeee" stroke="none" font-family="Arial" font-size="24px" font-style="normal" font-weight="normal" text-decoration="none" x="600" y="180"></text><text fill="#eeeeee" stroke="none" font-family="Arial" font-size="24px" font-style="normal" font-weight="normal" text-decoration="none" x="600" y="210"></text><text fill="#eeeeee" stroke="none" font-family="Arial" font-size="24px" font-style="normal" font-weight="normal" text-decoration="none" x="600" y="240"></text><text fill="#eeeeee" stroke="none" font-family="Arial" font-size="24px" font-style="normal" font-weight="normal" text-decoration="none" x="600" y="270"></text><text fill="#eeeeee" stroke="none" font-family="Arial" font-size="24px" font-style="normal" font-weight="normal" text-decoration="none" x="600" y="300"></text><text fill="#eeeeee" stroke="none" font-family="Arial" font-size="24px" font-style="normal" font-weight="normal" text-decoration="none" x="600" y="330"></text><text fill="#eeeeee" stroke="none" font-family="Arial" font-size="24px" font-style="normal" font-weight="normal" text-decoration="none" x="600" y="360"></text><text fill="#eeeeee" stroke="none" font-family="Arial" font-size="24px" font-style="normal" font-weight="normal" text-decoration="none" x="600" y="390"></text><text fill="#eeeeee" stroke="none" font-family="Arial" font-size="24px" font-style="normal" font-weight="normal" text-decoration="none" x="600" y="420"></text><text fill="#eeeeee" stroke="none" font-family="Arial" font-size="24px" font-style="normal" font-weight="normal" text-decoration="none" x="600" y="450"></text><g transform="translate(-22,2) scale(1,1)"><rect fill="#C0C0C0" stroke="none" x="135" y="15" width="416" height="456" opacity="0.2"/></g><g transform="translate(-22,2) scale(1,1)"><rect fill="#ffffff" stroke="none" x="128" y="8" width="416" height="456"/></g><g transform="translate(-22,2) scale(1,1)"><path fill="none" stroke="#000000" d="M 128 8 L 544 8 L 544 464 L 128 464 L 128 8 Z Z" stroke-miterlimit="10"/></g><g transform="translate(-22,2) scale(1,1)"><g><path fill="none" stroke="none"/><text fill="#000000" stroke="none" font-family="Arial" font-size="13px" font-style="normal" font-weight="bold" text-decoration="none" x="304.937744140625" y="27.5">Formulaire</text></g></g><g transform="translate(-22,2) scale(1,1)"><path fill="#ffffff" stroke="none" d="M 59.60661594460227 73.68 C 59.60661594460227 68.886167936 63.492458269547726 65 68.285888671875 65 C 73.07931907420227 65 76.96516139914773 68.886167936 76.96516139914773 73.68 C 76.96516139914773 78.473832064 73.07931907420227 82.36 68.285888671875 82.36 C 63.492458269547726 82.36 59.60661594460227 78.473832064 59.60661594460227 73.68 Z"/></g><g transform="translate(-22,2) scale(1,1)"><path fill="none" stroke="#000000" d="M 59.60661594460227 73.68 C 59.60661594460227 68.886167936 63.492458269547726 65 68.285888671875 65 C 73.07931907420227 65 76.96516139914773 68.886167936 76.96516139914773 73.68 C 76.96516139914773 78.473832064 73.07931907420227 82.36 68.285888671875 82.36 C 63.492458269547726 82.36 59.60661594460227 78.473832064 59.60661594460227 73.68 Z" stroke-miterlimit="10"/></g><g transform="translate(-22,2) scale(1,1)"><path fill="none" stroke="#000000" d="M 68.285888671875 82.36 L 68.285888671875 99.64" stroke-miterlimit="10"/></g><g transform="translate(-22,2) scale(1,1)"><path fill="none" stroke="#000000" d="M 59.09607049005682 88.84 L 77.47570685369318 88.84" stroke-miterlimit="10"/></g><g transform="translate(-22,2) scale(1,1)"><path fill="none" stroke="#000000" d="M 68.285888671875 99.64 L 55.522252308238635 117" stroke-miterlimit="10"/></g><g transform="translate(-22,2) scale(1,1)"><path fill="none" stroke="#000000" d="M 68.285888671875 99.64 L 81.04952503551137 117" stroke-miterlimit="10"/></g><g transform="translate(-22,2) scale(1,1)"><g><path fill="none" stroke="none"/><text fill="#000000" stroke="none" font-family="Arial" font-size="13px" font-style="normal" font-weight="bold" text-decoration="none" x="39.38818359375" y="137.5">Utilisateur</text></g></g><g transform="translate(-22,2) scale(1,1)"><path fill="#C0C0C0" stroke="none" d="M 191 104 C 191 94.6111584 213.6096176 87 241.5 87 C 269.3903824 87 292 94.6111584 292 104 C 292 113.3888416 269.3903824 121 241.5 121 C 213.6096176 121 191 113.3888416 191 104 Z" opacity="0.2"/></g><g transform="translate(-22,2) scale(1,1)"><path fill="#ffffff" stroke="none" d="M 184 97 C 184 87.6111584 206.6096176 80 234.5 80 C 262.3903824 80 285 87.6111584 285 97 C 285 106.3888416 262.3903824 114 234.5 114 C 206.6096176 114 184 106.3888416 184 97 Z"/></g><g transform="translate(-22,2) scale(1,1)"><path fill="none" stroke="#000000" d="M 184 97 C 184 87.6111584 206.6096176 80 234.5 80 C 262.3903824 80 285 87.6111584 285 97 C 285 106.3888416 262.3903824 114 234.5 114 C 206.6096176 114 184 106.3888416 184 97 Z" stroke-miterlimit="10"/></g><g transform="translate(-22,2) scale(1,1)"><g><path fill="none" stroke="none"/><text fill="#000000" stroke="none" font-family="Arial" font-size="13px" font-style="normal" font-weight="bold" text-decoration="none" x="205.951416015625" y="104">Répondre</text></g></g><g transform="translate(-22,2) scale(1,1)"><path fill="#ffffff" stroke="none" d="M 62.55388156960227 321.68 C 62.55388156960227 316.886167936 66.43972389454773 313 71.233154296875 313 C 76.02658469920227 313 79.91242702414773 316.886167936 79.91242702414773 321.68 C 79.91242702414773 326.473832064 76.02658469920227 330.36 71.233154296875 330.36 C 66.43972389454773 330.36 62.55388156960227 326.473832064 62.55388156960227 321.68 Z"/></g><g transform="translate(-22,2) scale(1,1)"><path fill="none" stroke="#000000" d="M 62.55388156960227 321.68 C 62.55388156960227 316.886167936 66.43972389454773 313 71.233154296875 313 C 76.02658469920227 313 79.91242702414773 316.886167936 79.91242702414773 321.68 C 79.91242702414773 326.473832064 76.02658469920227 330.36 71.233154296875 330.36 C 66.43972389454773 330.36 62.55388156960227 326.473832064 62.55388156960227 321.68 Z" stroke-miterlimit="10"/></g><g transform="translate(-22,2) scale(1,1)"><path fill="none" stroke="#000000" d="M 71.233154296875 330.36 L 71.233154296875 347.64" stroke-miterlimit="10"/></g><g transform="translate(-22,2) scale(1,1)"><path fill="none" stroke="#000000" d="M 62.04333611505682 336.84 L 80.42297247869318 336.84" stroke-miterlimit="10"/></g><g transform="translate(-22,2) scale(1,1)"><path fill="none" stroke="#000000" d="M 71.233154296875 347.64 L 58.469517933238635 365" stroke-miterlimit="10"/></g><g transform="translate(-22,2) scale(1,1)"><path fill="none" stroke="#000000" d="M 71.233154296875 347.64 L 83.99679066051137 365" stroke-miterlimit="10"/></g><g transform="translate(-22,2) scale(1,1)"><g><path fill="none" stroke="none"/><text fill="#000000" stroke="none" font-family="Arial" font-size="13px" font-style="normal" font-weight="bold" text-decoration="none" x="45.944091796875" y="385.5">Créateur</text></g></g><g transform="translate(-22,2) scale(1,1)"><path fill="none" stroke="#000000" d="M 71 311 L 68 144" stroke-miterlimit="10"/></g><g transform="translate(-22,2) scale(1,1)"><path fill="#FFFFFF" stroke="none" d="M 76.78274453870716 164.17085517195068 L 68 144 L 59.947389746330884 164.47328669516702"/></g><g transform="translate(-22,2) scale(1,1)"><path fill="none" stroke="#000000" d="M 76.78274453870716 164.17085517195068 L 68 144 L 59.947389746330884 164.47328669516702 L 76.78274453870716 164.17085517195068" stroke-miterlimit="10"/></g><g transform="translate(-22,2) scale(1,1)"><path fill="#C0C0C0" stroke="none" d="M 183 328 C 183 318.6111584 205.6096176 311 233.5 311 C 261.3903824 311 284 318.6111584 284 328 C 284 337.3888416 261.3903824 345 233.5 345 C 205.6096176 345 183 337.3888416 183 328 Z" opacity="0.2"/></g><g transform="translate(-22,2) scale(1,1)"><path fill="#ffffff" stroke="none" d="M 176 321 C 176 311.6111584 198.6096176 304 226.5 304 C 254.3903824 304 277 311.6111584 277 321 C 277 330.3888416 254.3903824 338 226.5 338 C 198.6096176 338 176 330.3888416 176 321 Z"/></g><g transform="translate(-22,2) scale(1,1)"><path fill="none" stroke="#000000" d="M 176 321 C 176 311.6111584 198.6096176 304 226.5 304 C 254.3903824 304 277 311.6111584 277 321 C 277 330.3888416 254.3903824 338 226.5 338 C 198.6096176 338 176 330.3888416 176 321 Z" stroke-miterlimit="10"/></g><g transform="translate(-22,2) scale(1,1)"><g><path fill="none" stroke="none"/><text fill="#000000" stroke="none" font-family="Arial" font-size="13px" font-style="normal" font-weight="bold" text-decoration="none" x="210.246826171875" y="328">Créer</text></g></g><g transform="translate(-22,2) scale(1,1)"><path fill="#C0C0C0" stroke="none" d="M 175 416 C 175 406.6111584 197.6096176 399 225.5 399 C 253.3903824 399 276 406.6111584 276 416 C 276 425.3888416 253.3903824 433 225.5 433 C 197.6096176 433 175 425.3888416 175 416 Z" opacity="0.2"/></g><g transform="translate(-22,2) scale(1,1)"><path fill="#ffffff" stroke="none" d="M 168 409 C 168 399.6111584 190.6096176 392 218.5 392 C 246.3903824 392 269 399.6111584 269 409 C 269 418.3888416 246.3903824 426 218.5 426 C 190.6096176 426 168 418.3888416 168 409 Z"/></g><g transform="translate(-22,2) scale(1,1)"><path fill="none" stroke="#000000" d="M 168 409 C 168 399.6111584 190.6096176 392 218.5 392 C 246.3903824 392 269 399.6111584 269 409 C 269 418.3888416 246.3903824 426 218.5 426 C 190.6096176 426 168 418.3888416 168 409 Z" stroke-miterlimit="10"/></g><g transform="translate(-22,2) scale(1,1)"><g><path fill="none" stroke="none"/><text fill="#000000" stroke="none" font-family="Arial" font-size="13px" font-style="normal" font-weight="bold" text-decoration="none" x="201.885009765625" y="416">Gérer</text></g></g><g transform="translate(-22,2) scale(1,1)"><path fill="#C0C0C0" stroke="none" d="M 319 384 C 319 374.6111584 341.6096176 367 369.5 367 C 397.3903824 367 420 374.6111584 420 384 C 420 393.3888416 397.3903824 401 369.5 401 C 341.6096176 401 319 393.3888416 319 384 Z" opacity="0.2"/></g><g transform="translate(-22,2) scale(1,1)"><path fill="#ffffff" stroke="none" d="M 312 377 C 312 367.6111584 334.6096176 360 362.5 360 C 390.3903824 360 413 367.6111584 413 377 C 413 386.3888416 390.3903824 394 362.5 394 C 334.6096176 394 312 386.3888416 312 377 Z"/></g><g transform="translate(-22,2) scale(1,1)"><path fill="none" stroke="#000000" d="M 312 377 C 312 367.6111584 334.6096176 360 362.5 360 C 390.3903824 360 413 367.6111584 413 377 C 413 386.3888416 390.3903824 394 362.5 394 C 334.6096176 394 312 386.3888416 312 377 Z" stroke-miterlimit="10"/></g><g transform="translate(-22,2) scale(1,1)"><g><path fill="none" stroke="none"/><text fill="#000000" stroke="none" font-family="Arial" font-size="13px" font-style="normal" font-weight="bold" text-decoration="none" x="342.635009765625" y="384">Activer</text></g></g><g transform="translate(-22,2) scale(1,1)"><path fill="#C0C0C0" stroke="none" d="M 327 440 C 327 430.6111584 349.6096176 423 377.5 423 C 405.3903824 423 428 430.6111584 428 440 C 428 449.3888416 405.3903824 457 377.5 457 C 349.6096176 457 327 449.3888416 327 440 Z" opacity="0.2"/></g><g transform="translate(-22,2) scale(1,1)"><path fill="#ffffff" stroke="none" d="M 320 433 C 320 423.6111584 342.6096176 416 370.5 416 C 398.3903824 416 421 423.6111584 421 433 C 421 442.3888416 398.3903824 450 370.5 450 C 342.6096176 450 320 442.3888416 320 433 Z"/></g><g transform="translate(-22,2) scale(1,1)"><path fill="none" stroke="#000000" d="M 320 433 C 320 423.6111584 342.6096176 416 370.5 416 C 398.3903824 416 421 423.6111584 421 433 C 421 442.3888416 398.3903824 450 370.5 450 C 342.6096176 450 320 442.3888416 320 433 Z" stroke-miterlimit="10"/></g><g transform="translate(-22,2) scale(1,1)"><g><path fill="none" stroke="none"/><text fill="#000000" stroke="none" font-family="Arial" font-size="13px" font-style="normal" font-weight="bold" text-decoration="none" x="347.746826171875" y="440">Périmer</text></g></g><g transform="translate(-22,2) scale(1,1)"><path fill="none" stroke="#000000" d="M 319 425 L 270 417" stroke-miterlimit="10"/></g><g transform="translate(-22,2) scale(1,1)"><path fill="#FFFFFF" stroke="none" d="M 291.41633112622156 411.96603922422577 L 270 417 L 288.7031807682648 428.5840851667108"/></g><g transform="translate(-22,2) scale(1,1)"><path fill="none" stroke="#000000" d="M 291.41633112622156 411.96603922422577 L 270 417 L 288.7031807682648 428.5840851667108 L 291.41633112622156 411.96603922422577" stroke-miterlimit="10"/></g><g transform="translate(-22,2) scale(1,1)"><path fill="none" stroke="#000000" d="M 311 388 L 270 397" stroke-miterlimit="10"/></g><g transform="translate(-22,2) scale(1,1)"><path fill="#FFFFFF" stroke="none" d="M 288.0475677280404 384.4188514394832 L 270 397 L 291.6577729866777 400.8653420621641"/></g><g transform="translate(-22,2) scale(1,1)"><path fill="none" stroke="#000000" d="M 288.0475677280404 384.4188514394832 L 270 397 L 291.6577729866777 400.8653420621641 L 288.0475677280404 384.4188514394832" stroke-miterlimit="10"/></g><g transform="translate(-22,2) scale(1,1)"><path fill="none" stroke="#000000" d="M 103 364 L 172 391" stroke-miterlimit="10"/></g><g transform="translate(-22,2) scale(1,1)"><path fill="none" stroke="#000000" d="M 103 345 L 175 331" stroke-miterlimit="10"/></g><g transform="translate(-22,2) scale(1,1)"><path fill="#C0C0C0" stroke="none" d="M 183 248 C 183 238.6111584 211.8776304 231 247.5 231 C 283.1223696 231 312 238.6111584 312 248 C 312 257.3888416 283.1223696 265 247.5 265 C 211.8776304 265 183 257.3888416 183 248 Z" opacity="0.2"/></g><g transform="translate(-22,2) scale(1,1)"><path fill="#ffffff" stroke="none" d="M 176 241 C 176 231.6111584 204.8776304 224 240.5 224 C 276.1223696 224 305 231.6111584 305 241 C 305 250.3888416 276.1223696 258 240.5 258 C 204.8776304 258 176 250.3888416 176 241 Z"/></g><g transform="translate(-22,2) scale(1,1)"><path fill="none" stroke="#000000" d="M 176 241 C 176 231.6111584 204.8776304 224 240.5 224 C 276.1223696 224 305 231.6111584 305 241 C 305 250.3888416 276.1223696 258 240.5 258 C 204.8776304 258 176 250.3888416 176 241 Z" stroke-miterlimit="10"/></g><g transform="translate(-22,2) scale(1,1)"><g><path fill="none" stroke="none"/><text fill="#000000" stroke="none" font-family="Arial" font-size="13px" font-style="normal" font-weight="bold" text-decoration="none" x="202.92822265625" y="248">Voir résultats</text></g></g><g transform="translate(-22,2) scale(1,1)"><path fill="none" stroke="#000000" d="M 103 330 L 212 259" stroke-miterlimit="10"/></g><g transform="translate(-22,2) scale(1,1)"><path fill="#ffffff" stroke="none" d="M 599.2247800071023 225.68 C 599.2247800071023 220.886167936 603.1106223320477 217 607.904052734375 217 C 612.6974831367023 217 616.5833254616477 220.886167936 616.5833254616477 225.68 C 616.5833254616477 230.47383206400002 612.6974831367023 234.36 607.904052734375 234.36 C 603.1106223320477 234.36 599.2247800071023 230.47383206400002 599.2247800071023 225.68 Z"/></g><g transform="translate(-22,2) scale(1,1)"><path fill="none" stroke="#000000" d="M 599.2247800071023 225.68 C 599.2247800071023 220.886167936 603.1106223320477 217 607.904052734375 217 C 612.6974831367023 217 616.5833254616477 220.886167936 616.5833254616477 225.68 C 616.5833254616477 230.47383206400002 612.6974831367023 234.36 607.904052734375 234.36 C 603.1106223320477 234.36 599.2247800071023 230.47383206400002 599.2247800071023 225.68 Z" stroke-miterlimit="10"/></g><g transform="translate(-22,2) scale(1,1)"><path fill="none" stroke="#000000" d="M 607.904052734375 234.36 L 607.904052734375 251.64" stroke-miterlimit="10"/></g><g transform="translate(-22,2) scale(1,1)"><path fill="none" stroke="#000000" d="M 598.7142345525568 240.84 L 617.0938709161932 240.84" stroke-miterlimit="10"/></g><g transform="translate(-22,2) scale(1,1)"><path fill="none" stroke="#000000" d="M 607.904052734375 251.64 L 595.1404163707386 269" stroke-miterlimit="10"/></g><g transform="translate(-22,2) scale(1,1)"><path fill="none" stroke="#000000" d="M 607.904052734375 251.64 L 620.6676890980114 269" stroke-miterlimit="10"/></g><g transform="translate(-22,2) scale(1,1)"><g><path fill="none" stroke="none"/><text fill="#000000" stroke="none" font-family="Arial" font-size="13px" font-style="normal" font-weight="bold" text-decoration="none" x="574.30908203125" y="289.5">Serveur BD</text></g></g><g transform="translate(-22,2) scale(1,1)"><path fill="none" stroke="#000000" d="M 106 102 L 183 99" stroke-miterlimit="10"/></g><g transform="translate(-22,2) scale(1,1)"><path fill="#C0C0C0" stroke="none" d="M 343 104 C 343 94.6111584 380.3842192 87 426.5 87 C 472.6157808 87 510 94.6111584 510 104 C 510 113.3888416 472.6157808 121 426.5 121 C 380.3842192 121 343 113.3888416 343 104 Z" opacity="0.2"/></g><g transform="translate(-22,2) scale(1,1)"><path fill="#ffffff" stroke="none" d="M 336 97 C 336 87.6111584 373.3842192 80 419.5 80 C 465.6157808 80 503 87.6111584 503 97 C 503 106.3888416 465.6157808 114 419.5 114 C 373.3842192 114 336 106.3888416 336 97 Z"/></g><g transform="translate(-22,2) scale(1,1)"><path fill="none" stroke="#000000" d="M 336 97 C 336 87.6111584 373.3842192 80 419.5 80 C 465.6157808 80 503 87.6111584 503 97 C 503 106.3888416 465.6157808 114 419.5 114 C 373.3842192 114 336 106.3888416 336 97 Z" stroke-miterlimit="10"/></g><g transform="translate(-22,2) scale(1,1)"><g><path fill="none" stroke="none"/><text fill="#000000" stroke="none" font-family="Arial" font-size="13px" font-style="normal" font-weight="bold" text-decoration="none" x="368.918701171875" y="104">Stocker réponses</text></g></g><g transform="translate(-22,2) scale(1,1)"><path fill="none" stroke="#000000" d="M 286 97 L 335 97" stroke-miterlimit="10" stroke-dasharray="3"/></g><g transform="translate(-22,2) scale(1,1)"><path fill="none" stroke="#000000" d="M 324.83732514237585 101.20951775601598 L 335 97 L 324.83732514237585 92.79048224398402" stroke-miterlimit="10"/></g><g transform="translate(-22,2) scale(1,1)"><g><path fill="none" stroke="none"/><text fill="#000000" stroke="none" font-family="Arial" font-size="13px" font-style="normal" font-weight="normal" text-decoration="none" x="282.5" y="73.5">«include»</text></g></g><g transform="translate(-22,2) scale(1,1)"><path fill="none" stroke="#000000" d="M 440 115 L 567 221" stroke-miterlimit="10"/></g><g transform="translate(-22,2) scale(1,1)"><path fill="#C0C0C0" stroke="none" d="M 367 248 C 367 238.6111584 402.5933584 231 446.5 231 C 490.4066416 231 526 238.6111584 526 248 C 526 257.3888416 490.4066416 265 446.5 265 C 402.5933584 265 367 257.3888416 367 248 Z" opacity="0.2"/></g><g transform="translate(-22,2) scale(1,1)"><path fill="#ffffff" stroke="none" d="M 360 241 C 360 231.6111584 395.5933584 224 439.5 224 C 483.4066416 224 519 231.6111584 519 241 C 519 250.3888416 483.4066416 258 439.5 258 C 395.5933584 258 360 250.3888416 360 241 Z"/></g><g transform="translate(-22,2) scale(1,1)"><path fill="none" stroke="#000000" d="M 360 241 C 360 231.6111584 395.5933584 224 439.5 224 C 483.4066416 224 519 231.6111584 519 241 C 519 250.3888416 483.4066416 258 439.5 258 C 395.5933584 258 360 250.3888416 360 241 Z" stroke-miterlimit="10"/></g><g transform="translate(-22,2) scale(1,1)"><g><path fill="none" stroke="none"/><text fill="#000000" stroke="none" font-family="Arial" font-size="13px" font-style="normal" font-weight="bold" text-decoration="none" x="392.5400390625" y="248">Fournir résultats</text></g></g><g transform="translate(-22,2) scale(1,1)"><path fill="none" stroke="#000000" d="M 306 241 L 359 241" stroke-miterlimit="10" stroke-dasharray="3"/></g><g transform="translate(-22,2) scale(1,1)"><path fill="none" stroke="#000000" d="M 348.83732514237585 245.209517756016 L 359 241 L 348.83732514237585 236.790482243984" stroke-miterlimit="10"/></g><g transform="translate(-22,2) scale(1,1)"><g><path fill="none" stroke="none"/><text fill="#000000" stroke="none" font-family="Arial" font-size="13px" font-style="normal" font-weight="normal" text-decoration="none" x="304.5" y="217.5">«include»</text></g></g><g transform="translate(-22,2) scale(1,1)"><path fill="none" stroke="#000000" d="M 520 248 L 567 252" stroke-miterlimit="10"/></g><g transform="translate(-22,2) scale(1,1)"><path fill="#C0C0C0" stroke="none" d="M 383 328 C 383 318.6111584 405.6096176 311 433.5 311 C 461.3903824 311 484 318.6111584 484 328 C 484 337.3888416 461.3903824 345 433.5 345 C 405.6096176 345 383 337.3888416 383 328 Z" opacity="0.2"/></g><g transform="translate(-22,2) scale(1,1)"><path fill="#ffffff" stroke="none" d="M 376 321 C 376 311.6111584 398.6096176 304 426.5 304 C 454.3903824 304 477 311.6111584 477 321 C 477 330.3888416 454.3903824 338 426.5 338 C 398.6096176 338 376 330.3888416 376 321 Z"/></g><g transform="translate(-22,2) scale(1,1)"><path fill="none" stroke="#000000" d="M 376 321 C 376 311.6111584 398.6096176 304 426.5 304 C 454.3903824 304 477 311.6111584 477 321 C 477 330.3888416 454.3903824 338 426.5 338 C 398.6096176 338 376 330.3888416 376 321 Z" stroke-miterlimit="10"/></g><g transform="translate(-22,2) scale(1,1)"><g><path fill="none" stroke="none"/><text fill="#000000" stroke="none" font-family="Arial" font-size="13px" font-style="normal" font-weight="bold" text-decoration="none" x="404.464111328125" y="328">Stocker</text></g></g><g transform="translate(-22,2) scale(1,1)"><path fill="none" stroke="#000000" d="M 475 303 L 567 270" stroke-miterlimit="10"/></g><g transform="translate(-22,2) scale(1,1)"><path fill="none" stroke="#000000" d="M 278 321 L 375 321" stroke-miterlimit="10" stroke-dasharray="3"/></g><g transform="translate(-22,2) scale(1,1)"><path fill="none" stroke="#000000" d="M 364.83732514237585 325.209517756016 L 375 321 L 364.83732514237585 316.790482243984" stroke-miterlimit="10"/></g><g transform="translate(-22,2) scale(1,1)"><g><path fill="none" stroke="none"/><text fill="#000000" stroke="none" font-family="Arial" font-size="13px" font-style="normal" font-weight="normal" text-decoration="none" x="298.5" y="297.5">«include»</text></g></g></g></svg>