<svg version="1.1" xmlns="http://www.w3.org/2000/svg" xmlns:xlink="http://www.w3.org/1999/xlink" width="771.80810546875" height="524"><defs/><g><text fill="#eeeeee" stroke="none" font-family="Arial" font-size="24px" font-style="normal" font-weight="normal" text-decoration="none" x="0" y="0"></text><text fill="#eeeeee" stroke="none" font-family="Arial" font-size="24px" font-style="normal" font-weight="normal" text-decoration="none" x="0" y="30"></text><text fill="#eeeeee" stroke="none" font-family="Arial" font-size="24px" font-style="normal" font-weight="normal" text-decoration="none" x="0" y="60"></text><text fill="#eeeeee" stroke="none" font-family="Arial" font-size="24px" font-style="normal" font-weight="normal" text-decoration="none" x="0" y="90"></text><text fill="#eeeeee" stroke="none" font-family="Arial" font-size="24px" font-style="normal" font-weight="normal" text-decoration="none" x="0" y="120"></text><text fill="#eeeeee" stroke="none" font-family="Arial" font-size="24px" font-style="normal" font-weight="normal" text-decoration="none" x="0" y="150"></text><text fill="#eeeeee" stroke="none" font-family="Arial" font-size="24px" font-style="normal" font-weight="normal" text-decoration="none" x="0" y="180"></text><text fill="#eeeeee" stroke="none" font-family="Arial" font-size="24px" font-style="normal" font-weight="normal" text-decoration="none" x="0" y="210"></text><text fill="#eeeeee" stroke="none" font-family="Arial" font-size="24px" font-style="normal" font-weight="normal" text-decoration="none" x="0" y="240"></text><text fill="#eeeeee" stroke="none" font-family="Arial" font-size="24px" font-style="normal" font-weight="normal" text-decoration="none" x="0" y="270"></text><text fill="#eeeeee" stroke="none" font-family="Arial" font-size="24px" font-style="normal" font-weight="normal" text-decoration="none" x="0" y="300"></text><text fill="#eeeeee" stroke="none" font-family="Arial" font-size="24px" font-style="normal" font-weight="normal" text-decoration="none" x="0" y="330"></text><text fill="#eeeeee" stroke="none" font-family="Arial" font-size="24px" font-style="normal" font-weight="normal" text-decoration="none" x="0" y="360"></text><text fill="#eeeeee" stroke="none" font-family="Arial" font-size="24px" font-style="normal" font-weight="normal" text-decoration="none" x="0" y="390"></text><text fill="#eeeeee" stroke="none" font-family="Arial" font-size="24px" font-style="normal" font-weight="normal" text-decoration="none" x="0" y="420"></text><text fill="#eeeeee" stroke="none" font-family="Arial" font-size="24px" font-style="normal" font-weight="normal" text-decoration="none" x="0" y="450"></text><text fill="#eeeeee" stroke="none" font-family="Arial" font-size="24px" font-style="normal" font-weight="normal" text-decoration="none" x="0" y="480"></text><text fill="#eeeeee" stroke="none" font-family="Arial" font-size="24px" font-style="normal" font-weight="normal" text-decoration="none" x="0" y="510"></text><text fill="#eeeeee" stroke="none" font-family="Arial" font-size="24px" font-style="normal" font-weight="normal" text-decoration="none" x="200" y="0"></text><text fill="#eeeeee" stroke="none" font-family="Arial" font-size="24px" font-style="normal" font-weight="normal" text-decoration="none" x="200" y="30"></text><text fill="#eeeeee" stroke="none" font-family="Arial" font-size="24px" font-style="normal" font-weight="normal" text-decoration="none" x="200" y="60"></text><text fill="#eeeeee" stroke="none" font-family="Arial" font-size="24px" font-style="normal" font-weight="normal" text-decoration="none" x="200" y="90"></text><text fill="#eeeeee" stroke="none" font-family="Arial" font-size="24px" font-style="normal" font-weight="normal" text-decoration="none" x="200" y="120"></text><text fill="#eeeeee" stroke="none" font-family="Arial" font-size="24px" font-style="normal" font-weight="normal" text-decoration="none" x="200" y="150"></text><text fill="#eeeeee" stroke="none" font-family="Arial" font-size="24px" font-style="normal" font-weight="normal" text-decoration="none" x="200" y="180"></text><text fill="#eeeeee" stroke="none" font-family="Arial" font-size="24px" font-style="normal" font-weight="normal" text-decoration="none" x="200" y="210"></text><text fill="#eeeeee" stroke="none" font-family="Arial" font-size="24px" font-style="normal" font-weight="normal" text-decoration="none" x="200" y="240"></text><text fill="#eeeeee" stroke="none" font-family="Arial" font-size="24px" font-style="normal" font-weight="normal" text-decoration="none" x="200" y="270"></text><text fill="#eeeeee" stroke="none" font-family="Arial" font-size="24px" font-style="normal" font-weight="normal" text-decoration="none" x="200" y="300"></text><text fill="#eeeeee" stroke="none" font-family="Arial" font-size="24px" font-style="normal" font-weight="normal" text-decoration="none" x="200" y="330"></text><text fill="#eeeeee" stroke="none" font-family="Arial" font-size="24px" font-style="normal" font-weight="normal" text-decoration="none" x="200" y="360"></text><text fill="#eeeeee" stroke="none" font-family="Arial" font-size="24px" font-style="normal" font-weight="normal" text-decoration="none" x="200" y="390"></text><text fill="#eeeeee" stroke="none" font-family="Arial" font-size="24px" font-style="normal" font-weight="normal" text-decoration="none" x="200" y="420"></text><text fill="#eeeeee" stroke="none" font-family="Arial" font-size="24px" font-style="normal" font-weight="normal" text-decoration="none" x="200" y="450"></text><text fill="#eeeeee" stroke="none" font-family="Arial" font-size="24px" font-style="normal" font-weight="normal" text-decoration="none" x="200" y="480"></text><text fill="#eeeeee" stroke="none" font-family="Arial" font-size="24px" font-style="normal" font-weight="normal" text-decoration="none" x="200" y="510"></text><text fill="#eeeeee" stroke="none" font-family="Arial" font-size="24px" font-style="normal" font-weight="normal" text-decoration="none" x="400" y="0"></text><text fill="#eeeeee" stroke="none" font-family="Arial" font-size="24px" font-style="normal" font-weight="normal" text-decoration="none" x="400" y="30"></text><text fill="#eeeeee" stroke="none" font-family="Arial" font-size="24px" font-style="normal" font-weight="normal" text-decoration="none" x="400" y="60"></text><text fill="#eeeeee" stroke="none" font-family="Arial" font-size="24px" font-style="normal" font-weight="normal" text-decoration="none" x="400" y="90"></text><text fill="#eeeeee" stroke="none" font-family="Arial" font-size="24px" font-style="normal" font-weight="normal" text-decoration="none" x="400" y="120"></text><text fill="#eeeeee" stroke="none" font-family="Arial" font-size="24px" font-style="normal" font-weight="normal" text-decoration="none" x="400" y="150"></text><text fill="#eeeeee" stroke="none" font-family="Arial" font-size="24px" font-style="normal" font-weight="normal" text-decoration="none" x="400" y="180"></text><text fill="#eeeeee" stroke="none" font-family="Arial" font-size="24px" font-style="normal" font-weight="normal" text-decoration="none" x="400" y="210"></text><text fill="#eeeeee" stroke="none" font-family="Arial" font-size="24px" font-style="normal" font-weight="normal" text-decoration="none" x="400" y="240"></text><text fill="#eeeeee" stroke="none" font-family="Arial" font-size="24px" font-style="normal" font-weight="normal" text-decoration="none" x="400" y="270"></text><text fill="#eeeeee" stroke="none" font-family="Arial" font-size="24px" font-style="normal" font-weight="normal" text-decoration="none" x="400" y="300"></text><text fill="#eeeeee" stroke="none" font-family="Arial" font-size="24px" font-style="normal" font-weight="normal" text-decoration="none" x="400" y="330"></text><text fill="#eeeeee" stroke="none" font-family="Arial" font-size="24px" font-style="normal" font-weight="normal" text-decoration="none" x="400" y="360"></text><text fill="#eeeeee" stroke="none" font-family="Arial" font-size="24px" font-style="normal" font-weight="normal" text-decoration="none" x="400" y="390"></text><text fill="#eeeeee" stroke="none" font-family="Arial" font-size="24px" font-style="normal" font-weight="normal" text-decoration="none" x="400" y="420"></text><text fill="#eeeeee" stroke="none" font-family="Arial" font-size="24px" font-style="normal" font-weight="normal" text-decoration="none" x="400" y="450"></text><text fill="#eeeeee" stroke="none" font-family="Arial" font-size="24px" font-style="normal" font-weight="normal" text-decoration="none" x="400" y="480"></text><text fill="#eeeeee" stroke="none" font-family="Arial" font-size="24px" font-style="normal" font-weight="normal" text-decoration="none" x="400" y="510"></text><text fill="#eeeeee" stroke="none" font-family="Arial" font-size="24px" font-style="normal" font-weight="normal" text-decoration="none" x="600" y="0"></text><text fill="#eeeeee" stroke="none" font-family="Arial" font-size="24px" font-style="normal" font-weight="normal" text-decoration="none" x="600" y="30"></text><text fill="#eeeeee" stroke="none" font-family="Arial" font-size="24px" font-style="normal" font-weight="normal" text-decoration="none" x="600" y="60"></text><text fill="#eeeeee" stroke="none" font-family="Arial" font-size="24px" font-style="normal" font-weight="normal" text-decoration="none" x="600" y="90"></text><text fill="#eeeeee" stroke="none" font-family="Arial" font-size="24px" font-style="normal" font-weight="normal" text-decoration="none" x="600" y="120"></text><text fill="#eeeeee" stroke="none" font-family="Arial" font-size="24px" font-style="normal" font-weight="normal" text-decoration="none" x="600" y="150"></text><text fill="#eeeeee" stroke="none" font-family="Arial" font-size="24px" font-style="normal" font-weight="normal" text-decoration="none" x="600" y="180"></text><text fill="#eeeeee" stroke="none" font-family="Arial" font-size="24px" font-style="normal" font-weight="normal" text-decoration="none" x="600" y="210"></text><text fill="#eeeeee" stroke="none" font-family="Arial" font-size="24px" font-style="normal" font-weight="normal" text-decoration="none" x="600" y="240"></text><text fill="#eeeeee" stroke="none" font-family="Arial" font-size="24px" font-style="normal" font-weight="normal" text-decoration="none" x="600" y="270"></text><text fill="#eeeeee" stroke="none" font-family="Arial" font-size="24px" font-style="normal" font-weight="normal" text-decoration="none" x="600" y="300"></text><text fill="#eeeeee" stroke="none" font-family="Arial" font-size="24px" font-style="normal" font-weight="normal" text-decoration="none" x="600" y="330"></text><text fill="#eeeeee" stroke="none" font-family="Arial" font-size="24px" font-style="normal" font-weight="normal" text-decoration="none" x="600" y="360"></text><text fill="#eeeeee" stroke="none" font-family="Arial" font-size="24px" font-style="normal" font-weight="normal" text-decoration="none" x="600" y="390"></text><text fill="#eeeeee" stroke="none" font-family="Arial" font-size="24px" font-style="normal" font-weight="normal" text-decoration="none" x="600" y="420"></text><text fill="#eeeeee" stroke="none" font-family="Arial" font-size="24px" font-style="normal" font-weight="normal" text-decoration="none" x="600" y="450"></text><text fill="#eeeeee" stroke="none" font-family="Arial" font-size="24px" font-style="normal" font-weight="normal" text-decoration="none" x="600" y="480"></text><text fill="#eeeeee" stroke="none" font-family="Arial" font-size="24px" font-style="normal" font-weight="normal" text-decoration="none" x="600" y="510"></text><g transform="translate(2,10) scale(1,1)"><rect fill="#C0C0C0" stroke="none" x="159" y="7" width="496" height="504" opacity="0.2"/></g><g transform="translate(2,10) scale(1,1)"><rect fill="#ffffff" stroke="none" x="152" y="0" width="496" height="504"/></g><g transform="translate(2,10) scale(1,1)"><path fill="none" stroke="#000000" d="M 152 0 L 648 0 L 648 504 L 152 504 L 152 0 Z Z" stroke-miterlimit="10"/></g><g transform="translate(2,10) scale(1,1)"><g><path fill="none" stroke="none"/><text fill="#000000" stroke="none" font-family="Arial" font-size="13px" font-style="normal" font-weight="bold" text-decoration="none" x="388.799560546875" y="19.5">Site</text></g></g><g transform="translate(2,10) scale(1,1)"><path fill="#ffffff" stroke="none" d="M 67.60661594460227 105.68 C 67.60661594460227 100.886167936 71.49245826954773 97 76.285888671875 97 C 81.07931907420227 97 84.96516139914773 100.886167936 84.96516139914773 105.68 C 84.96516139914773 110.473832064 81.07931907420227 114.36 76.285888671875 114.36 C 71.49245826954773 114.36 67.60661594460227 110.473832064 67.60661594460227 105.68 Z"/></g><g transform="translate(2,10) scale(1,1)"><path fill="none" stroke="#000000" d="M 67.60661594460227 105.68 C 67.60661594460227 100.886167936 71.49245826954773 97 76.285888671875 97 C 81.07931907420227 97 84.96516139914773 100.886167936 84.96516139914773 105.68 C 84.96516139914773 110.473832064 81.07931907420227 114.36 76.285888671875 114.36 C 71.49245826954773 114.36 67.60661594460227 110.473832064 67.60661594460227 105.68 Z" stroke-miterlimit="10"/></g><g transform="translate(2,10) scale(1,1)"><path fill="none" stroke="#000000" d="M 76.285888671875 114.36 L 76.285888671875 131.64" stroke-miterlimit="10"/></g><g transform="translate(2,10) scale(1,1)"><path fill="none" stroke="#000000" d="M 67.09607049005682 120.84 L 85.47570685369318 120.84" stroke-miterlimit="10"/></g><g transform="translate(2,10) scale(1,1)"><path fill="none" stroke="#000000" d="M 76.285888671875 131.64 L 63.522252308238635 149" stroke-miterlimit="10"/></g><g transform="translate(2,10) scale(1,1)"><path fill="none" stroke="#000000" d="M 76.285888671875 131.64 L 89.04952503551137 149" stroke-miterlimit="10"/></g><g transform="translate(2,10) scale(1,1)"><g><path fill="none" stroke="none"/><text fill="#000000" stroke="none" font-family="Arial" font-size="13px" font-style="normal" font-weight="bold" text-decoration="none" x="47.38818359375" y="169.5">Utilisateur</text></g></g><g transform="translate(2,10) scale(1,1)"><path fill="#C0C0C0" stroke="none" d="M 199 64 C 199 54.6111584 227.6537728 47 263 47 C 298.3462272 47 327 54.6111584 327 64 C 327 73.3888416 298.3462272 81 263 81 C 227.6537728 81 199 73.3888416 199 64 Z" opacity="0.2"/></g><g transform="translate(2,10) scale(1,1)"><path fill="#ffffff" stroke="none" d="M 192 57 C 192 47.6111584 220.6537728 40 256 40 C 291.3462272 40 320 47.6111584 320 57 C 320 66.3888416 291.3462272 74 256 74 C 220.6537728 74 192 66.3888416 192 57 Z"/></g><g transform="translate(2,10) scale(1,1)"><path fill="none" stroke="#000000" d="M 192 57 C 192 47.6111584 220.6537728 40 256 40 C 291.3462272 40 320 47.6111584 320 57 C 320 66.3888416 291.3462272 74 256 74 C 220.6537728 74 192 66.3888416 192 57 Z" stroke-miterlimit="10"/></g><g transform="translate(2,10) scale(1,1)"><g><path fill="none" stroke="none"/><text fill="#000000" stroke="none" font-family="Arial" font-size="13px" font-style="normal" font-weight="bold" text-decoration="none" x="217.6982421875" y="64">Se connecter</text></g></g><g transform="translate(2,10) scale(1,1)"><path fill="#ffffff" stroke="none" d="M 65.94841281960227 313.68 C 65.94841281960227 308.886167936 69.83425514454773 305 74.627685546875 305 C 79.42111594920227 305 83.30695827414773 308.886167936 83.30695827414773 313.68 C 83.30695827414773 318.473832064 79.42111594920227 322.36 74.627685546875 322.36 C 69.83425514454773 322.36 65.94841281960227 318.473832064 65.94841281960227 313.68 Z"/></g><g transform="translate(2,10) scale(1,1)"><path fill="none" stroke="#000000" d="M 65.94841281960227 313.68 C 65.94841281960227 308.886167936 69.83425514454773 305 74.627685546875 305 C 79.42111594920227 305 83.30695827414773 308.886167936 83.30695827414773 313.68 C 83.30695827414773 318.473832064 79.42111594920227 322.36 74.627685546875 322.36 C 69.83425514454773 322.36 65.94841281960227 318.473832064 65.94841281960227 313.68 Z" stroke-miterlimit="10"/></g><g transform="translate(2,10) scale(1,1)"><path fill="none" stroke="#000000" d="M 74.627685546875 322.36 L 74.627685546875 339.64" stroke-miterlimit="10"/></g><g transform="translate(2,10) scale(1,1)"><path fill="none" stroke="#000000" d="M 65.43786736505682 328.84 L 83.81750372869318 328.84" stroke-miterlimit="10"/></g><g transform="translate(2,10) scale(1,1)"><path fill="none" stroke="#000000" d="M 74.627685546875 339.64 L 61.864049183238635 357" stroke-miterlimit="10"/></g><g transform="translate(2,10) scale(1,1)"><path fill="none" stroke="#000000" d="M 74.627685546875 339.64 L 87.39132191051137 357" stroke-miterlimit="10"/></g><g transform="translate(2,10) scale(1,1)"><g><path fill="none" stroke="none"/><text fill="#000000" stroke="none" font-family="Arial" font-size="13px" font-style="normal" font-weight="bold" text-decoration="none" x="17.543212890625" y="377.5">Utilisateur connecté</text></g></g><g transform="translate(2,10) scale(1,1)"><path fill="#C0C0C0" stroke="none" d="M 207 120 C 207 110.6111584 229.6096176 103 257.5 103 C 285.3903824 103 308 110.6111584 308 120 C 308 129.3888416 285.3903824 137 257.5 137 C 229.6096176 137 207 129.3888416 207 120 Z" opacity="0.2"/></g><g transform="translate(2,10) scale(1,1)"><path fill="#ffffff" stroke="none" d="M 200 113 C 200 103.6111584 222.6096176 96 250.5 96 C 278.3903824 96 301 103.6111584 301 113 C 301 122.3888416 278.3903824 130 250.5 130 C 222.6096176 130 200 122.3888416 200 113 Z"/></g><g transform="translate(2,10) scale(1,1)"><path fill="none" stroke="#000000" d="M 200 113 C 200 103.6111584 222.6096176 96 250.5 96 C 278.3903824 96 301 103.6111584 301 113 C 301 122.3888416 278.3903824 130 250.5 130 C 222.6096176 130 200 122.3888416 200 113 Z" stroke-miterlimit="10"/></g><g transform="translate(2,10) scale(1,1)"><g><path fill="none" stroke="none"/><text fill="#000000" stroke="none" font-family="Arial" font-size="13px" font-style="normal" font-weight="bold" text-decoration="none" x="223.976318359375" y="120">S'inscrire</text></g></g><g transform="translate(2,10) scale(1,1)"><path fill="none" stroke="#000000" d="M 114 119 L 214 75" stroke-miterlimit="10"/></g><g transform="translate(2,10) scale(1,1)"><path fill="none" stroke="#000000" d="M 114 130 L 199 119" stroke-miterlimit="10"/></g><g transform="translate(2,10) scale(1,1)"><path fill="#C0C0C0" stroke="none" d="M 191 208 C 191 198.6111584 243.83039359999998 191 309 191 C 374.1696064 191 427 198.6111584 427 208 C 427 217.3888416 374.1696064 225 309 225 C 243.83039359999998 225 191 217.3888416 191 208 Z" opacity="0.2"/></g><g transform="translate(2,10) scale(1,1)"><path fill="#ffffff" stroke="none" d="M 184 201 C 184 191.6111584 236.83039359999998 184 302 184 C 367.1696064 184 420 191.6111584 420 201 C 420 210.3888416 367.1696064 218 302 218 C 236.83039359999998 218 184 210.3888416 184 201 Z"/></g><g transform="translate(2,10) scale(1,1)"><path fill="none" stroke="#000000" d="M 184 201 C 184 191.6111584 236.83039359999998 184 302 184 C 367.1696064 184 420 191.6111584 420 201 C 420 210.3888416 367.1696064 218 302 218 C 236.83039359999998 218 184 210.3888416 184 201 Z" stroke-miterlimit="10"/></g><g transform="translate(2,10) scale(1,1)"><g><path fill="none" stroke="none"/><text fill="#000000" stroke="none" font-family="Arial" font-size="13px" font-style="normal" font-weight="bold" text-decoration="none" x="228.291015625" y="208">Répondre à un formulaire</text></g></g><g transform="translate(2,10) scale(1,1)"><path fill="none" stroke="#000000" d="M 114 146 L 240 183" stroke-miterlimit="10"/></g><g transform="translate(2,10) scale(1,1)"><path fill="#C0C0C0" stroke="none" d="M 503 456 C 503 446.6111584 532.5492032 439 569 439 C 605.4507968 439 635 446.6111584 635 456 C 635 465.3888416 605.4507968 473 569 473 C 532.5492032 473 503 465.3888416 503 456 Z" opacity="0.2"/></g><g transform="translate(2,10) scale(1,1)"><path fill="#ffffff" stroke="none" d="M 496 449 C 496 439.6111584 525.5492032 432 562 432 C 598.4507968 432 628 439.6111584 628 449 C 628 458.3888416 598.4507968 466 562 466 C 525.5492032 466 496 458.3888416 496 449 Z"/></g><g transform="translate(2,10) scale(1,1)"><path fill="none" stroke="#000000" d="M 496 449 C 496 439.6111584 525.5492032 432 562 432 C 598.4507968 432 628 439.6111584 628 449 C 628 458.3888416 598.4507968 466 562 466 C 525.5492032 466 496 458.3888416 496 449 Z" stroke-miterlimit="10"/></g><g transform="translate(2,10) scale(1,1)"><g><path fill="none" stroke="none"/><text fill="#000000" stroke="none" font-family="Arial" font-size="13px" font-style="normal" font-weight="bold" text-decoration="none" x="522.263671875" y="456">Gérer compte</text></g></g><g transform="translate(2,10) scale(1,1)"><path fill="#C0C0C0" stroke="none" d="M 287 440 C 287 430.6111584 310.505048 423 339.5 423 C 368.494952 423 392 430.6111584 392 440 C 392 449.3888416 368.494952 457 339.5 457 C 310.505048 457 287 449.3888416 287 440 Z" opacity="0.2"/></g><g transform="translate(2,10) scale(1,1)"><path fill="#ffffff" stroke="none" d="M 280 433 C 280 423.6111584 303.505048 416 332.5 416 C 361.494952 416 385 423.6111584 385 433 C 385 442.3888416 361.494952 450 332.5 450 C 303.505048 450 280 442.3888416 280 433 Z"/></g><g transform="translate(2,10) scale(1,1)"><path fill="none" stroke="#000000" d="M 280 433 C 280 423.6111584 303.505048 416 332.5 416 C 361.494952 416 385 423.6111584 385 433 C 385 442.3888416 361.494952 450 332.5 450 C 303.505048 450 280 442.3888416 280 433 Z" stroke-miterlimit="10"/></g><g transform="translate(2,10) scale(1,1)"><g><path fill="none" stroke="none"/><text fill="#000000" stroke="none" font-family="Arial" font-size="13px" font-style="normal" font-weight="bold" text-decoration="none" x="302.516845703125" y="440">Supprimer</text></g></g><g transform="translate(2,10) scale(1,1)"><path fill="none" stroke="#000000" d="M 386 437 L 495 444" stroke-miterlimit="10"/></g><g transform="translate(2,10) scale(1,1)"><path fill="#FFFFFF" stroke="none" d="M 474.17687379849826 451.0991136909006 L 495 444 L 475.2559948261648 434.2956576886649"/></g><g transform="translate(2,10) scale(1,1)"><path fill="none" stroke="#000000" d="M 474.17687379849826 451.0991136909006 L 495 444 L 475.2559948261648 434.2956576886649 L 474.17687379849826 451.0991136909006" stroke-miterlimit="10"/></g><g transform="translate(2,10) scale(1,1)"><path fill="#C0C0C0" stroke="none" d="M 183 488 C 183 478.6111584 230.010096 471 288 471 C 345.989904 471 393 478.6111584 393 488 C 393 497.3888416 345.989904 505 288 505 C 230.010096 505 183 497.3888416 183 488 Z" opacity="0.2"/></g><g transform="translate(2,10) scale(1,1)"><path fill="#ffffff" stroke="none" d="M 176 481 C 176 471.6111584 223.010096 464 281 464 C 338.989904 464 386 471.6111584 386 481 C 386 490.3888416 338.989904 498 281 498 C 223.010096 498 176 490.3888416 176 481 Z"/></g><g transform="translate(2,10) scale(1,1)"><path fill="none" stroke="#000000" d="M 176 481 C 176 471.6111584 223.010096 464 281 464 C 338.989904 464 386 471.6111584 386 481 C 386 490.3888416 338.989904 498 281 498 C 223.010096 498 176 490.3888416 176 481 Z" stroke-miterlimit="10"/></g><g transform="translate(2,10) scale(1,1)"><g><path fill="none" stroke="none"/><text fill="#000000" stroke="none" font-family="Arial" font-size="13px" font-style="normal" font-weight="bold" text-decoration="none" x="215.23828125" y="488">Changer mot de passe</text></g></g><g transform="translate(2,10) scale(1,1)"><path fill="none" stroke="#000000" d="M 387 469 L 495 457" stroke-miterlimit="10"/></g><g transform="translate(2,10) scale(1,1)"><path fill="#FFFFFF" stroke="none" d="M 475.7286924561337 467.612101844108 L 495 457 L 473.8692385767896 450.8770169300117"/></g><g transform="translate(2,10) scale(1,1)"><path fill="none" stroke="#000000" d="M 475.7286924561337 467.612101844108 L 495 457 L 473.8692385767896 450.8770169300117 L 475.7286924561337 467.612101844108" stroke-miterlimit="10"/></g><g transform="translate(2,10) scale(1,1)"><path fill="none" stroke="#000000" d="M 142 358 L 495 434" stroke-miterlimit="10"/></g><g transform="translate(2,10) scale(1,1)"><path fill="#C0C0C0" stroke="none" d="M 295 264 C 295 254.6111584 329.9217856 247 373 247 C 416.0782144 247 451 254.6111584 451 264 C 451 273.3888416 416.0782144 281 373 281 C 329.9217856 281 295 273.3888416 295 264 Z" opacity="0.2"/></g><g transform="translate(2,10) scale(1,1)"><path fill="#ffffff" stroke="none" d="M 288 257 C 288 247.6111584 322.9217856 240 366 240 C 409.0782144 240 444 247.6111584 444 257 C 444 266.3888416 409.0782144 274 366 274 C 322.9217856 274 288 266.3888416 288 257 Z"/></g><g transform="translate(2,10) scale(1,1)"><path fill="none" stroke="#000000" d="M 288 257 C 288 247.6111584 322.9217856 240 366 240 C 409.0782144 240 444 247.6111584 444 257 C 444 266.3888416 409.0782144 274 366 274 C 322.9217856 274 288 266.3888416 288 257 Z" stroke-miterlimit="10"/></g><g transform="translate(2,10) scale(1,1)"><g><path fill="none" stroke="none"/><text fill="#000000" stroke="none" font-family="Arial" font-size="13px" font-style="normal" font-weight="bold" text-decoration="none" x="319.043212890625" y="264">Créer formulaire</text></g></g><g transform="translate(2,10) scale(1,1)"><path fill="none" stroke="#000000" d="M 142 323 L 305 275" stroke-miterlimit="10"/></g><g transform="translate(2,10) scale(1,1)"><path fill="#C0C0C0" stroke="none" d="M 319 320 C 319 310.6111584 354.1456432 303 397.5 303 C 440.8543568 303 476 310.6111584 476 320 C 476 329.3888416 440.8543568 337 397.5 337 C 354.1456432 337 319 329.3888416 319 320 Z" opacity="0.2"/></g><g transform="translate(2,10) scale(1,1)"><path fill="#ffffff" stroke="none" d="M 312 313 C 312 303.6111584 347.1456432 296 390.5 296 C 433.8543568 296 469 303.6111584 469 313 C 469 322.3888416 433.8543568 330 390.5 330 C 347.1456432 330 312 322.3888416 312 313 Z"/></g><g transform="translate(2,10) scale(1,1)"><path fill="none" stroke="#000000" d="M 312 313 C 312 303.6111584 347.1456432 296 390.5 296 C 433.8543568 296 469 303.6111584 469 313 C 469 322.3888416 433.8543568 330 390.5 330 C 347.1456432 330 312 322.3888416 312 313 Z" stroke-miterlimit="10"/></g><g transform="translate(2,10) scale(1,1)"><g><path fill="none" stroke="none"/><text fill="#000000" stroke="none" font-family="Arial" font-size="13px" font-style="normal" font-weight="bold" text-decoration="none" x="343.181396484375" y="320">Gérer formulaire</text></g></g><g transform="translate(2,10) scale(1,1)"><path fill="none" stroke="#000000" d="M 142 337 L 311 321" stroke-miterlimit="10"/></g><g transform="translate(2,10) scale(1,1)"><path fill="none" stroke="#000000" d="M 138 303 L 273 219" stroke-miterlimit="10"/></g><g transform="translate(2,10) scale(1,1)"><path fill="#C0C0C0" stroke="none" d="M 399 384 C 399 374.6111584 432.57864 367 474 367 C 515.42136 367 549 374.6111584 549 384 C 549 393.3888416 515.42136 401 474 401 C 432.57864 401 399 393.3888416 399 384 Z" opacity="0.2"/></g><g transform="translate(2,10) scale(1,1)"><path fill="#ffffff" stroke="none" d="M 392 377 C 392 367.6111584 425.57864 360 467 360 C 508.42136 360 542 367.6111584 542 377 C 542 386.3888416 508.42136 394 467 394 C 425.57864 394 392 386.3888416 392 377 Z"/></g><g transform="translate(2,10) scale(1,1)"><path fill="none" stroke="#000000" d="M 392 377 C 392 367.6111584 425.57864 360 467 360 C 508.42136 360 542 367.6111584 542 377 C 542 386.3888416 508.42136 394 467 394 C 425.57864 394 392 386.3888416 392 377 Z" stroke-miterlimit="10"/></g><g transform="translate(2,10) scale(1,1)"><g><path fill="none" stroke="none"/><text fill="#000000" stroke="none" font-family="Arial" font-size="13px" font-style="normal" font-weight="bold" text-decoration="none" x="421.46826171875" y="384">Se déconnecter</text></g></g><g transform="translate(2,10) scale(1,1)"><path fill="none" stroke="#000000" d="M 142 349 L 391 370" stroke-miterlimit="10"/></g><g transform="translate(2,10) scale(1,1)"><path fill="#C0C0C0" stroke="none" d="M 527 64 C 527 54.6111584 552.2959088 47 583.5 47 C 614.7040912 47 640 54.6111584 640 64 C 640 73.3888416 614.7040912 81 583.5 81 C 552.2959088 81 527 73.3888416 527 64 Z" opacity="0.2"/></g><g transform="translate(2,10) scale(1,1)"><path fill="#ffffff" stroke="none" d="M 520 57 C 520 47.6111584 545.2959088 40 576.5 40 C 607.7040912 40 633 47.6111584 633 57 C 633 66.3888416 607.7040912 74 576.5 74 C 545.2959088 74 520 66.3888416 520 57 Z"/></g><g transform="translate(2,10) scale(1,1)"><path fill="none" stroke="#000000" d="M 520 57 C 520 47.6111584 545.2959088 40 576.5 40 C 607.7040912 40 633 47.6111584 633 57 C 633 66.3888416 607.7040912 74 576.5 74 C 545.2959088 74 520 66.3888416 520 57 Z" stroke-miterlimit="10"/></g><g transform="translate(2,10) scale(1,1)"><g><path fill="none" stroke="none"/><text fill="#000000" stroke="none" font-family="Arial" font-size="13px" font-style="normal" font-weight="bold" text-decoration="none" x="544.345947265625" y="64">Vérification</text></g></g><g transform="translate(2,10) scale(1,1)"><path fill="none" stroke="#000000" d="M 321 57 L 519 57" stroke-miterlimit="10" stroke-dasharray="3"/></g><g transform="translate(2,10) scale(1,1)"><path fill="none" stroke="#000000" d="M 508.83732514237585 61.20951775601599 L 519 57 L 508.83732514237585 52.790482243984016" stroke-miterlimit="10"/></g><g transform="translate(2,10) scale(1,1)"><g><path fill="none" stroke="none"/><text fill="#000000" stroke="none" font-family="Arial" font-size="13px" font-style="normal" font-weight="normal" text-decoration="none" x="392.5" y="33.5">«include»</text></g></g><g transform="translate(2,10) scale(1,1)"><path fill="#ffffff" stroke="none" d="M 711.2247800071023 249.68 C 711.2247800071023 244.886167936 715.1106223320477 241 719.904052734375 241 C 724.6974831367023 241 728.5833254616477 244.886167936 728.5833254616477 249.68 C 728.5833254616477 254.47383206400002 724.6974831367023 258.36 719.904052734375 258.36 C 715.1106223320477 258.36 711.2247800071023 254.47383206400002 711.2247800071023 249.68 Z"/></g><g transform="translate(2,10) scale(1,1)"><path fill="none" stroke="#000000" d="M 711.2247800071023 249.68 C 711.2247800071023 244.886167936 715.1106223320477 241 719.904052734375 241 C 724.6974831367023 241 728.5833254616477 244.886167936 728.5833254616477 249.68 C 728.5833254616477 254.47383206400002 724.6974831367023 258.36 719.904052734375 258.36 C 715.1106223320477 258.36 711.2247800071023 254.47383206400002 711.2247800071023 249.68 Z" stroke-miterlimit="10"/></g><g transform="translate(2,10) scale(1,1)"><path fill="none" stroke="#000000" d="M 719.904052734375 258.36 L 719.904052734375 275.64" stroke-miterlimit="10"/></g><g transform="translate(2,10) scale(1,1)"><path fill="none" stroke="#000000" d="M 710.7142345525568 264.84 L 729.0938709161932 264.84" stroke-miterlimit="10"/></g><g transform="translate(2,10) scale(1,1)"><path fill="none" stroke="#000000" d="M 719.904052734375 275.64 L 707.1404163707386 293" stroke-miterlimit="10"/></g><g transform="translate(2,10) scale(1,1)"><path fill="none" stroke="#000000" d="M 719.904052734375 275.64 L 732.6676890980114 293" stroke-miterlimit="10"/></g><g transform="translate(2,10) scale(1,1)"><g><path fill="none" stroke="none"/><text fill="#000000" stroke="none" font-family="Arial" font-size="13px" font-style="normal" font-weight="bold" text-decoration="none" x="686.30908203125" y="313.5">Serveur BD</text></g></g><g transform="translate(2,10) scale(1,1)"><path fill="none" stroke="#000000" d="M 588 75 L 693 239" stroke-miterlimit="10"/></g><g transform="translate(2,10) scale(1,1)"><path fill="#C0C0C0" stroke="none" d="M 503 232 C 503 222.6111584 525.6096176 215 553.5 215 C 581.3903824 215 604 222.6111584 604 232 C 604 241.3888416 581.3903824 249 553.5 249 C 525.6096176 249 503 241.3888416 503 232 Z" opacity="0.2"/></g><g transform="translate(2,10) scale(1,1)"><path fill="#ffffff" stroke="none" d="M 496 225 C 496 215.6111584 518.6096176 208 546.5 208 C 574.3903824 208 597 215.6111584 597 225 C 597 234.3888416 574.3903824 242 546.5 242 C 518.6096176 242 496 234.3888416 496 225 Z"/></g><g transform="translate(2,10) scale(1,1)"><path fill="none" stroke="#000000" d="M 496 225 C 496 215.6111584 518.6096176 208 546.5 208 C 574.3903824 208 597 215.6111584 597 225 C 597 234.3888416 574.3903824 242 546.5 242 C 518.6096176 242 496 234.3888416 496 225 Z" stroke-miterlimit="10"/></g><g transform="translate(2,10) scale(1,1)"><g><path fill="none" stroke="none"/><text fill="#000000" stroke="none" font-family="Arial" font-size="13px" font-style="normal" font-weight="bold" text-decoration="none" x="519.398681640625" y="232">Stockage</text></g></g><g transform="translate(2,10) scale(1,1)"><path fill="none" stroke="#000000" d="M 561 431 L 547 243" stroke-miterlimit="10"/></g><g transform="translate(2,10) scale(1,1)"><path fill="none" stroke="#000000" d="M 298 131 L 498 207" stroke-miterlimit="10"/></g><g transform="translate(2,10) scale(1,1)"><path fill="none" stroke="#000000" d="M 598 241 L 679 267" stroke-miterlimit="10"/></g></g></svg>